<svg xmlns="http://www.w3.org/2000/svg" viewBox="0 0 258.4 300.5"><style>.st5{fill:#ed1c24}</style><g id="Layer_1"><path d="M1.59 147.99h256.8v35.61H1.59z"/><path class="st5" d="M107.08 255.32s13.25-6.13 14.23-8c0 0 5.38-4.45 11.74 1.16 0 0 2.11.76 3.11 0 0 0 5.91-5.56 12.29-1.03 0 0 12.43 9.52 15.36 9.03l.89.02-1.78 1.86-10.11-1.76s-22.08-3.71-37.46.91c0 0-4.07 2.22-5.07 1.55 0 0-4.14-.54-3.2-3.74z"/><path d="M107.48 256.19c2.46-1.16 4.89-2.35 7.31-3.62 1.21-.63 2.4-1.28 3.59-1.97.59-.34 1.18-.71 1.77-1.09.58-.43 1.19-.75 1.75-1.49l.06-.06v.01l-.01.01-.01.02c-.01.01-.03.02-.03.02.59-.44 1.46-.88 2.27-1.13.84-.26 1.71-.36 2.57-.32.87.01 1.72.28 2.55.56.81.36 1.6.79 2.32 1.34l.54.42.39.31c.18.13.46.18.55.21.53.15 1.06.25 1.65.27.58 0 1.25-.02 1.96-.54.38-.34.7-.58 1.09-.84.75-.5 1.56-.92 2.4-1.24.85-.3 1.72-.47 2.6-.54 1.75-.06 3.51.48 4.98 1.49 1.53 1.11 3.14 2.31 4.74 3.41 1.61 1.11 3.24 2.2 4.93 3.22.84.51 1.7 1 2.6 1.45.45.23.9.44 1.38.64.24.1.48.19.74.27l.39.12.14.03h.01c.07.01.13 0 .2 0h.1l-.07.08-.29.31-5.52-.94c-1.97-.32-3.93-.71-5.95-.97-3.99-.53-8-.87-12.02-1.02-4.02-.15-8.05-.11-12.07.21-4.04.34-7.98.91-11.98 2.11l-.65.34-.59.29c-.4.19-.8.37-1.21.52-.4.16-.81.31-1.21.4-.19.04-.4.09-.56.09-.09.01-.16 0-.21 0-.11.03 0-.09-.12.06l-.21-.16c-.8-.13-1.69-.45-2.24-.96-.56-.51-.7-1.22-.47-2.01.04 0-.22.41-.14 1.15.06.36.26.81.75 1.21.48.39 1.22.75 2.07.93l.08.02.04.03c.16.12.57.13.95.06.39-.07.8-.17 1.23-.31.85-.28 1.76-.65 2.71-1.11 2.49-.57 5.39-1.14 8.72-1.4 3.32-.28 7.03-.38 11.07-.26 4.04.13 8.4.44 13.02 1.03 2.33.28 4.65.65 7.1 1.12 2.61.46 5.28.94 8.03 1.43l.67-.7c.18-.19.33-.35.49-.55.32-.39.61-.85.83-1.29l.31-.63.04-.07c-.01-.02-.02-.03-.03-.04l-.07-.09-.13-.17-.13-.17c-.05-.06-.05-.13-.27-.12l-1.13-.03c-.05 0-.12.01-.18.01l-.59-.08c-.16-.03-.2-.06-.31-.08-.18-.05-.37-.13-.56-.2-.38-.15-.76-.33-1.15-.52-.77-.38-1.54-.81-2.31-1.26-1.54-.9-3.07-1.9-4.61-2.93-1.54-1.03-3.08-2.11-4.62-3.23-1.56-1.17-3.6-2.15-5.71-2.24-1.06-.04-2.12.09-3.13.37-1.01.3-1.97.73-2.86 1.27-.45.26-.88.56-1.29.89-.21.16-.41.33-.61.51-.13.12-.26.2-.46.25-.38.11-.86.1-1.32.04a5.78 5.78 0 01-.7-.14c-.25-.05-.26-.09-.52-.28-1.63-1.27-3.61-2.25-5.72-2.36-2.1-.16-4.22.56-5.82 1.84-.03.04-.07.09-.1.14-.4.56-.96.94-1.49 1.36-.54.39-1.1.77-1.66 1.14-1.13.73-2.29 1.44-3.46 2.12-2.35 1.36-4.75 2.7-7.19 4.03z"/><path class="st5" d="M107.61 260.04s8.37 6.79 9.45 8.86c0 0 13.42 15.26 39.91-2.14 0 0 5.37-6.77 5.95-6.73 0 0-6.38-3.5-11.65-2.75 0 0-10.94 1.09-11.83 2.19 0 0-5.42.01-7.29-1.11 0 0-8.94-2.14-16.01 0 .01 0-6.71.79-8.53 1.68z"/><path d="M107.01 260.78c1.8 1.46 3.59 2.97 5.32 4.52a47.3 47.3 0 012.51 2.37c.4.4.79.82 1.1 1.22.09.11.14.19.2.28l.17.26c.09.13.16.18.21.24.23.22.45.45.69.65 1.87 1.63 3.99 2.87 6.25 3.77 1.11.51 2.3.77 3.46 1.13l1.79.33.89.16.91.07c4.83.45 9.67-.41 14.17-1.95l3.35-1.27 3.2-1.57c.53-.27 1.08-.5 1.59-.81l1.52-.92 3.14-1.9 1.46-1.82 1.39-1.69 1.41-1.66.75-.83.35-.35c.09-.05.06-.13.04-.2l-.05-.21c.02-.23.13-.38.18-.5.02-.05.05-.08.06-.09v-.17c0-.12.04-.36.06-.53-.39-.19-.77-.39-1.17-.57l-.73-.32c-.46-.2-.93-.38-1.4-.55-.94-.35-1.91-.65-2.89-.88-1.94-.49-4.09-.69-6.08-.39-1.96.22-3.91.46-5.87.76-.98.15-1.95.31-2.93.52-.49.1-.98.22-1.48.35-.26.09-.49.14-.77.25l-.4.17c-.17.09-.36.25-.51.39l.53-.25c-1.31-.01-2.65-.08-3.94-.23-.65-.08-1.29-.19-1.9-.34-.3-.08-.59-.17-.85-.29l-.2-.1c-.14-.08-.28-.12-.39-.14l-.51-.1c-2.69-.51-5.41-.8-8.16-.8-1.37.01-2.75.07-4.11.27-.69.07-1.36.23-2.04.36l-1.01.27-.25.07c-.06.02-.04.01-.15.03l-.51.06c-1.34.18-2.68.38-4.02.62-.67.12-1.34.25-2.01.41-.67.16-1.33.32-2.05.65 0 0 .21-.09.61-.2.39-.11.96-.23 1.7-.36 1.47-.24 3.64-.5 6.43-.71 2.7-.66 6.17-.88 10.08-.44.98.1 1.99.25 3.02.42.52.09 1.04.19 1.57.3l.79.18.39.1c.03.01.07.02.09.04l.19.1c1.14.54 2.31.72 3.51.9 1.2.16 2.43.26 3.71.3l.3-.42.16.11.08.06h.03c.01 0 .02-.01.03-.02l.24-.09c.15-.07.36-.12.56-.17.39-.11.82-.2 1.25-.28.86-.17 1.76-.3 2.67-.43 1.82-.25 3.72-.46 5.66-.65.99-.09 1.92-.2 2.85-.16.94.06 1.9.2 2.87.42.96.23 1.93.52 2.89.87.48.17.96.36 1.44.57l.71.31c.04.02.01.01.02.01l-.67.73c-.49.55-.96 1.1-1.44 1.67-.47.57-.95 1.15-1.43 1.74-.44.55-.88 1.1-1.32 1.66-.85.52-1.71 1.04-2.57 1.57-.45.28-.9.56-1.36.84l-.68.42-.72.36c-1.92.96-3.84 2.02-5.93 2.75-4.1 1.61-8.59 2.73-13.25 2.61l-1.75-.08c-.59-.02-1.16-.16-1.75-.23-1.18-.12-2.31-.48-3.48-.77-2.27-.74-4.49-1.78-6.5-3.23-.49-.38-.98-.75-1.44-1.2-.39-.56-.75-.94-1.21-1.38-.87-.85-1.82-1.64-2.77-2.42-1.88-1.6-3.88-3.1-5.9-4.55zM38.99 145.91c2.34 14.82 4.87 29.6 7.58 44.35 2.75 14.74 5.59 29.48 9.22 44.06.93 3.64 1.9 7.27 3.05 10.87.59 1.79 1.2 3.59 1.96 5.34l.59 1.31.73 1.29c.51.84 1.06 1.57 1.59 2.36 4.33 6.15 8.95 12.09 13.84 17.79 4.91 5.69 10.1 11.17 15.81 16.1 2.86 2.46 5.85 4.78 9.05 6.81 3.2 2.02 6.61 3.78 10.29 4.86 0 0-.31-.12-.93-.35-.31-.11-.69-.26-1.14-.43-.44-.19-.95-.43-1.52-.69-2.29-1.07-5.51-2.91-9.25-5.76-3.74-2.86-8-6.7-12.56-11.48-4.55-4.79-9.41-10.49-14.43-17.02-2.5-3.27-5.06-6.73-7.6-10.4-.61-.91-1.31-1.86-1.84-2.78-.54-.9-.97-1.94-1.41-2.98a79.48 79.48 0 01-2.22-6.64c-2.67-9.16-4.88-19.14-7.15-29.55-4.46-20.84-8.94-43.6-13.66-67.06zM195.57 267.66c-6.45 7.04-13.24 13.85-20.4 20.18-3.59 3.15-7.3 6.18-11.22 8.89-1.97 1.34-3.98 2.6-6.09 3.65-2.1 1.03-4.34 1.9-6.59 2.02 0 0 .4.02 1.16.04.39-.01.86-.08 1.44-.13.56-.11 1.22-.23 1.95-.43 2.91-.8 6.93-2.68 11.35-5.67 8.86-5.93 19.51-15.99 28.4-28.55zM223.07 148.97c-1.8 0-.5.01-.9.01v.05l-.01.11-.01.23-.02.46-.05.93-.11 1.85-.23 3.71-.52 7.42c-.37 4.94-.79 9.88-1.25 14.82-.93 9.87-2.04 19.72-3.43 29.54-1.41 9.81-3.06 19.59-5.37 29.21-1.17 4.8-2.49 9.57-4.22 14.19-.86 2.3-1.83 4.57-3 6.71-1.16 2.14-2.53 4.19-4.32 5.74 0 0 .16-.13.48-.38.33-.24.77-.67 1.33-1.24 1.1-1.17 2.55-3.12 4.02-5.86 2.97-5.48 5.96-14.04 8.47-24.71 2.52-10.68 4.61-23.47 6.06-37.55.73-7.04 1.29-14.4 1.68-21.98.19-3.79.34-7.64.43-11.52l.09-5.86c0-.98.01-1.96.01-2.95v-1.48l-.01-.74v-.66c.38-.04-.92-.05.88-.05zM128.23 73.43c-3.21 1.91-6.07 4.15-8.75 6.66-2.65 2.52-5.08 5.29-7.1 8.37-2.01 3.07-3.61 6.44-4.6 9.99-1 3.55-1.37 7.27-1.13 10.95.26 3.68 1.19 7.27 2.47 10.69l1.03 2.54c.39.82.82 1.63 1.23 2.44l.62 1.22c.22.4.47.78.7 1.17l1.42 2.33c3.96 6.11 8.91 11.46 14.17 16.41 0 0-.42-.48-1.2-1.4-.77-.93-2-2.2-3.42-3.96-.71-.88-1.5-1.85-2.36-2.92-.86-1.06-1.68-2.29-2.63-3.56-.23-.32-.47-.64-.71-.97-.22-.34-.45-.69-.67-1.05-.46-.71-.93-1.43-1.41-2.18-.51-.73-.92-1.55-1.38-2.36-.44-.82-.96-1.63-1.38-2.51-1.76-3.48-3.31-7.46-4.18-11.87-.47-2.2-.63-4.51-.65-6.87.09-2.36.29-4.8.94-7.21.24-1.23.7-2.41 1.09-3.63.49-1.18.94-2.4 1.55-3.56 1.16-2.35 2.56-4.65 4.21-6.84 3.31-4.37 7.32-8.41 12.14-11.88z"/><path d="M126.98 71.47c-3.39 2-6.45 4.33-9.37 6.87-2.89 2.56-5.57 5.38-7.91 8.48-2.34 3.09-4.33 6.47-5.75 10.11-1.43 3.63-2.25 7.5-2.35 11.41-.09 3.9.47 7.81 1.66 11.51.28.93.67 1.82 1 2.73.18.45.34.91.53 1.35l.64 1.3c.43.86.83 1.75 1.3 2.59l1.49 2.48c4.06 6.58 9.41 12.21 15.11 17.32 0 0-.45-.5-1.31-1.45-.43-.47-.96-1.05-1.59-1.73-.63-.68-1.37-1.45-2.11-2.39-.77-.92-1.62-1.93-2.55-3.04-.87-1.16-1.81-2.41-2.81-3.75-.99-1.35-1.9-2.89-2.95-4.45-.46-.82-.92-1.67-1.41-2.53-.24-.43-.48-.87-.73-1.31-.21-.46-.42-.93-.64-1.4-1.77-3.72-3.27-8.02-3.75-12.75-.48-4.72.04-9.83 1.82-14.84.89-2.5 2.1-4.95 3.5-7.36 1.43-2.39 3.12-4.7 4.97-6.93 1.86-2.23 3.91-4.38 6.11-6.42s4.51-3.99 7.1-5.8z"/><path d="M124.52 69.68c-3.63 1.95-6.94 4.24-10.13 6.75-3.17 2.52-6.13 5.32-8.78 8.39-2.65 3.07-4.98 6.45-6.79 10.11-1.81 3.65-3.07 7.6-3.6 11.65-.09 1.02-.27 2.03-.27 3.05s-.03 2.04-.01 3.06l.28 3.05c.11 1.01.36 2.01.54 3.01.89 3.97 2.24 7.84 4.17 11.4 3.69 7.23 8.87 13.53 14.53 19.22 0 0-.45-.55-1.29-1.6-.42-.52-.95-1.16-1.56-1.91-.31-.37-.64-.78-1-1.21-.34-.44-.69-.93-1.06-1.43-.75-1.01-1.57-2.13-2.47-3.35-.83-1.27-1.72-2.65-2.68-4.13-.87-1.53-1.81-3.15-2.71-4.9-.81-1.8-1.77-3.65-2.45-5.71-1.49-4.06-2.59-8.7-2.59-13.69l.03-1.88c-.01-.63.12-1.26.17-1.9.08-.64.12-1.28.23-1.92.13-.64.26-1.28.39-1.93l.2-.97.28-.96c.19-.64.38-1.29.57-1.94.24-.63.49-1.27.74-1.91l.37-.97.45-.94c2.31-5.08 5.78-9.92 9.96-14.35 4.19-4.44 8.99-8.54 14.48-12.09z"/><path d="M128.32 63.6c-4.19 1.88-8.07 4.15-11.83 6.67a76.224 76.224 0 00-10.55 8.52c-3.24 3.16-6.18 6.66-8.59 10.53-2.4 3.86-4.25 8.09-5.3 12.54-1.09 4.44-1.23 9.08-.67 13.59l.2 1.7c.1.56.24 1.11.35 1.67.26 1.1.44 2.23.78 3.31l1.04 3.24c.16.55.37 1.07.6 1.59l.66 1.56c3.55 8.34 8.89 15.75 14.86 22.45 0 0-.47-.64-1.35-1.85-.44-.6-.99-1.34-1.64-2.22-.32-.44-.67-.9-1.05-1.4-.34-.52-.71-1.08-1.1-1.66-.77-1.17-1.62-2.47-2.55-3.89-.84-1.47-1.75-3.07-2.73-4.78-.43-.88-.87-1.8-1.32-2.74-.23-.47-.46-.95-.69-1.43-.12-.24-.24-.48-.35-.73-.1-.25-.2-.51-.3-.77-.4-1.03-.81-2.08-1.23-3.17-.23-.53-.39-1.1-.55-1.67-.17-.57-.34-1.14-.51-1.73-1.32-4.65-2.1-9.94-1.57-15.51.07-.69.12-1.4.21-2.1.14-.7.27-1.4.41-2.1.21-1.43.73-2.8 1.11-4.23.98-2.79 2.16-5.62 3.79-8.29.74-1.38 1.69-2.66 2.57-3.99.98-1.27 1.91-2.6 3.01-3.82 2.11-2.51 4.48-4.89 7.03-7.15 2.55-2.27 5.27-4.42 8.15-6.45 2.89-2.05 5.86-3.97 9.11-5.69z"/><path d="M128.32 59.51c-4.4 1.95-8.53 4.26-12.55 6.82-4 2.56-7.84 5.39-11.42 8.53-3.57 3.15-6.88 6.62-9.71 10.47-2.83 3.84-5.19 8.08-6.76 12.62a39.789 39.789 0 00-2.2 14.14l.24 3.59.61 3.54.15.88.24.86.49 1.73.49 1.72c.16.58.42 1.12.62 1.68 3.35 8.96 8.83 16.91 15.12 23.96 0 0-.49-.68-1.42-1.95-.47-.63-1.04-1.42-1.72-2.34-.34-.46-.72-.95-1.09-1.49-.36-.55-.74-1.14-1.14-1.76-3.26-4.88-7.74-12.32-10.04-22.31-1.03-4.99-1.33-10.61-.19-16.4 1.14-5.79 3.82-11.59 7.56-17.03 3.83-5.39 8.7-10.42 14.25-14.98 5.58-4.51 11.7-8.71 18.47-12.28z"/><path d="M127.05 55.78c-4.52 2.12-8.78 4.57-12.95 7.25-4.15 2.68-8.14 5.6-11.91 8.8-7.49 6.4-14.23 14.01-18.39 23.1a40.98 40.98 0 00-3.68 14.42c-.33 4.98.3 10 1.68 14.78 3.01 9.51 8.63 17.92 15.22 25.22 0 0-.52-.7-1.49-2.02-.95-1.34-2.51-3.17-4.12-5.81-.81-1.31-1.84-2.67-2.67-4.35-.44-.82-.9-1.67-1.38-2.55-.23-.45-.5-.88-.71-1.36-.21-.48-.42-.96-.63-1.46-.43-.98-.87-2-1.33-3.05-.38-1.08-.72-2.2-1.11-3.35-.18-.58-.4-1.15-.55-1.75-.13-.6-.26-1.22-.4-1.84-.26-1.24-.61-2.49-.69-3.82-.73-5.24-.39-11.11 1.43-16.97 1.78-5.88 4.96-11.73 9.25-17.13 4.23-5.45 9.48-10.5 15.28-15.21 2.91-2.35 5.98-4.6 9.16-6.76 3.21-2.15 6.49-4.23 9.99-6.14z"/><path d="M123.78 52.26c-8.36 4.86-16.14 10.5-23.39 16.84-7.19 6.36-13.84 13.49-18.82 21.81-2.48 4.15-4.47 8.63-5.68 13.34-1.23 4.7-1.54 9.67-.85 14.49.67 4.83 2.43 9.46 4.81 13.67 2.39 4.22 5.46 8 8.81 11.46 0 0-.54-.65-1.56-1.89-1-1.25-2.45-3.11-4.08-5.63-1.62-2.52-3.41-5.74-4.81-9.68-1.4-3.93-2.33-8.64-2.07-13.79.23-5.15 1.67-10.67 4.25-16.11 2.59-5.43 6.21-10.8 10.58-15.93 4.35-5.16 9.41-10.12 14.92-14.9 5.54-4.78 11.46-9.4 17.89-13.68z"/><path d="M119.48 52.2c-9.21 3.45-17.98 7.77-26.37 12.8-8.37 5.04-16.27 10.98-23.06 18.07-3.38 3.56-6.39 7.49-8.88 11.74-2.46 4.25-4.44 8.85-5.43 13.7-1 4.85-1.09 9.85-.41 14.73l.68 3.63c.27 1.2.68 2.36 1.02 3.55l.53 1.77.7 1.7 1.41 3.4-.81-2.37c-.27-.77-.59-1.72-.98-2.84-.28-1.15-.6-2.47-.97-3.96-.08-.37-.2-.75-.27-1.14-.06-.4-.11-.81-.17-1.23-.12-.83-.24-1.71-.37-2.62-.18-.9-.12-1.88-.18-2.87l-.06-1.52c-.02-.51-.05-1.04.01-1.57.11-4.26 1.02-9.04 2.91-13.94 1.9-4.91 4.86-9.89 8.73-14.66 3.87-4.76 8.59-9.36 13.96-13.64 5.38-4.27 11.31-8.38 17.69-12.16 3.18-1.91 6.47-3.75 9.85-5.52 3.41-1.76 6.86-3.47 10.47-5.05z"/><path d="M117.55 54.22c-7.2 4.2-14.23 8.64-21.02 13.47-3.39 2.42-6.72 4.94-9.85 7.72-1.57 1.39-3.09 2.84-4.46 4.46-1.34 1.62-2.71 3.37-3.09 5.72 0 0 .12-.41.4-1.1.35-.66.88-1.58 1.77-2.54 1.72-1.99 4.61-4.35 8.23-7.07 7.29-5.43 17.53-12.28 28.02-20.66z"/><path d="M112.52 52.21c-9.01 3.72-17.53 8.34-25.62 13.68-8.07 5.35-15.66 11.54-22.04 18.88-6.43 7.27-11.4 16.02-13.56 25.57-.99 4.79-1.2 9.72-.71 14.58l.51 3.62c.22 1.2.56 2.37.83 3.56l.44 1.77.6 1.72 1.2 3.44s-.23-.83-.67-2.39l-.81-2.86c-.22-1.15-.47-2.48-.75-3.97-.07-.37-.16-.75-.21-1.14-.04-.4-.07-.8-.11-1.22-.08-.83-.16-1.7-.25-2.61-.13-.9-.06-1.86-.08-2.84.02-.99-.04-2.01.04-3.06.27-4.21 1.17-8.93 2.99-13.83 1.82-4.89 4.6-9.92 8.26-14.78 3.65-4.87 8.15-9.6 13.25-14.1 5.12-4.48 10.85-8.75 16.99-12.78 3.07-2.03 6.26-3.96 9.54-5.85 3.28-1.88 6.63-3.7 10.16-5.39z"/><path d="M109.15 52.2c-4.88 1.88-9.58 4.05-14.21 6.39-4.63 2.35-9.15 4.89-13.54 7.66C72.63 71.79 64.32 78.21 57.37 86c-3.45 3.9-6.53 8.16-8.96 12.8-2.4 4.65-4.11 9.68-4.81 14.89-.67 5.2-.37 10.53.9 15.61 1.21 5.1 3.35 9.91 5.9 14.44 0 0-.39-.83-1.12-2.4-.37-.78-.75-1.78-1.25-2.94-.43-1.18-.98-2.52-1.43-4.08-.96-3.09-1.89-6.95-2.16-11.47-.24-4.51.17-9.67 1.87-15 1.67-5.33 4.54-10.8 8.47-15.99 3.93-5.2 8.82-10.2 14.42-14.88 5.59-4.69 11.85-9.1 18.55-13.25 6.73-4.13 13.82-8.05 21.4-11.53z"/><path d="M98.55 54.15c-9.29 3.5-18.13 7.89-26.55 13.07-8.39 5.18-16.28 11.32-22.86 18.75-3.29 3.71-6.13 7.85-8.34 12.31-2.2 4.46-3.7 9.29-4.26 14.26-.57 4.97 0 10.01 1.19 14.82l1.02 3.58 1.38 3.46c.24.57.44 1.16.71 1.72l.85 1.65 1.7 3.3-1.01-2.31c-.33-.75-.74-1.68-1.23-2.77-.43-1.12-.84-2.43-1.35-3.89-.99-2.92-1.78-6.6-2.23-10.87-.24-4.29.02-9.18 1.49-14.28 1.45-5.1 4.09-10.34 7.75-15.32 3.66-4.99 8.28-9.77 13.6-14.21 5.33-4.42 11.27-8.64 17.68-12.5 3.2-1.95 6.51-3.83 9.91-5.63 3.43-1.8 6.9-3.54 10.55-5.14z"/><path d="M91.35 54.1c-5.99.06-11.77 1.23-17.34 3.17-2.78.97-5.45 2.24-8.04 3.65-2.53 1.51-5.01 3.13-7.22 5.09-4.49 3.83-8.19 8.57-10.87 13.81-2.7 5.24-4.41 10.91-5.45 16.66-1.12 5.75-1.27 11.62-1.24 17.44l.21 4.36c.04.73.06 1.46.11 2.18l.23 2.17c.31 2.89.58 5.79 1.12 8.65 1.83 11.48 4.85 22.73 8.42 33.76 0 0-1-3.95-2.79-11-1.58-7.08-3.96-17.29-5.12-29.93-.64-6.3-.79-13.24-.15-20.54.66-7.29 2.3-15 5.74-22.35 1.83-3.61 4.04-7.14 6.8-10.35 2.78-3.19 6.09-6.02 9.79-8.4 3.71-2.37 7.8-4.3 12.13-5.71 4.39-1.38 8.88-2.4 13.67-2.66zM129.87 190.78c.09 2.62.12 5.26.06 7.88-.04 1.31-.09 2.62-.21 3.92-.13 1.26-.28 2.65-.72 3.62-.02-.02.4-.17.88-.92.48-.72 1.02-1.89 1.36-3.35.68-2.91.71-6.99-1.37-11.15zM113.35 217.66c-1.61 1.47-1.75 3.65-1.15 5.28.56 1.68 1.63 2.97 2.72 4.14 0 0-.01-.38-.11-.93s-.25-1.31-.47-2.1c-.24-.8-.49-1.6-.81-2.48-.13-.45-.3-.94-.39-1.56-.04-.31-.07-.66-.05-1.04.03-.41.03-.78.26-1.31zM130.86 231.55c.45.39.78.55 1.16.76.37.19.75.35 1.14.5.77.28 1.58.48 2.41.55.83.07 1.69.02 2.51-.21.82-.24 1.57-.66 2.22-1.18 0 0-.4-.01-.94.01-.57-.02-1.27-.04-2.02-.15-.75-.1-1.53-.19-2.53-.23-.5-.01-1.05-.02-1.68.01-.32.01-.66.02-1.02.04-.37-.03-.72.04-1.25-.1zM151.17 224.06c-1.18-.1-2.24-.01-3.35.3-.55.16-1.08.39-1.58.72-.49.34-.92.78-1.23 1.29 0 0 .3-.05.74-.11.44-.04.95-.06 1.46-.07.5-.02 1-.09 1.61-.39.62-.31 1.28-.86 2.35-1.74zM118.25 225.87c.9-.02 1.86.01 2.75.14.45.06.89.15 1.26.28.1.03.18.07.26.11.09.04.15.08.19.11.13.08.09.1.15.13 0 0 .05 0 .14-.03.1-.04.22-.13.26-.33.1-.4-.22-1.04-.72-1.44-1.01-.81-2.73-.94-4.29 1.03zM157.24 219.42c.82 1.79 1.23 4.26-.28 5.56 0 0 .26.07.72.03.43-.06 1.1-.34 1.53-1 .45-.64.64-1.6.33-2.49-.28-.87-1.06-1.76-2.3-2.1zM107.01 255.76c2.55-1.11 5.06-2.25 7.56-3.47 1.25-.62 2.49-1.23 3.72-1.92.61-.34 1.23-.68 1.83-1.08.61-.38 1.21-.79 1.82-1.39l-.09.09c.83-.61 2.01-1.1 3.13-1.27 1.14-.18 2.32-.11 3.46.2 1.14.29 2.21.87 3.22 1.53l.74.53.15.1c.06.04.12.09.19.11a5.165 5.165 0 00.82.28c.7.17 1.49.31 2.37 0 .22-.08.43-.19.63-.35l.38-.31c.23-.18.48-.36.73-.53.5-.33 1.03-.64 1.57-.9 1.09-.52 2.25-.86 3.43-.96 2.37-.22 4.67.81 6.46 2.44l.03.03.02.02c2.27 1.65 4.59 3.19 7.01 4.61 1.22.7 2.45 1.38 3.74 1.96 1.32.54 2.63 1.15 4.29 1.11h-.06l.89.01s-.28-.03-.89-.1h.05c-2.48-.02-7.51-3.37-14.23-8.68l.06.05c-1.47-1.54-3.67-2.86-6.28-3.07-2.6-.18-5.28.75-7.53 2.38l-.42.32c-.12.1-.34.28-.34.27-.09.07-.24.12-.46.14-.42.04-1.03-.08-1.52-.27-.01-.01.01.01-.01 0l-.22-.16-.44-.31c-.29-.21-.59-.42-.92-.59-.32-.17-.64-.37-.98-.52l-1.04-.43c-2.84-1.06-6.35-.76-8.88 1.29l-.03.02-.02.03c-.79.85-1.97 1.61-3.08 2.34-1.14.73-2.32 1.44-3.51 2.15a904.7 904.7 0 01-7.35 4.3z"/><path d="M106.66 256.61c.06.57.21.9.44 1.29.24.36.54.68.89.91.69.47 1.45.62 2.14.67 1.38.07 2.66-.18 3.82-.6 2.22-.69 4.49-1.29 6.76-1.67.57-.09 1.13-.17 1.7-.23.28-.02.56-.05.84-.06l.42-.01c.08 0 .45-.02.53-.04 1.16-.14 2.33-.25 3.5-.35 2.34-.19 4.69-.32 7.04-.39 4.69-.13 9.42-.01 14.05.51 2.29.31 4.66.75 7 1.07 1.17.17 2.35.33 3.54.46.59.07 1.19.12 1.79.17l.92.04.49-.01c.16 0 .42-.06.61-.1 0 0-.15.03-.45.05-.26-.01-.57-.03-.98-.1-.81-.13-1.94-.38-3.4-.71-1.45-.34-3.21-.76-5.25-1.24-1.02-.24-2.1-.5-3.25-.77-1.19-.21-2.43-.43-3.74-.58-5.22-.66-11.46-.78-18.2-.06-.84.09-1.69.19-2.55.31-.43.07-.86.13-1.29.2l-.16.03c-.05.01 0 .01-.08.01l-.34.02c-.23.02-.45.03-.68.06-1.8.22-3.54.68-5.28 1.23-.87.28-1.73.59-2.58.92l-1.28.52-.63.28c-.25.09-.46.15-.69.23-.91.27-1.88.48-2.96.35s-2.41-.84-2.69-2.41z"/><path d="M119.44 257.67c0 .65 0 .76.01.66h.22l.26.01.53.02 1.07.05 2.14.11c1.43.08 2.85.17 4.27.28 1.4.12 2.86.24 4.16.5l.23.05c.01 0 .11.04.21.07l.55.17c.36.1.73.19 1.1.27.73.16 1.48.27 2.23.33 1.5.12 3.03.04 4.51-.31 1.39-.38 2.78-.67 4.17-.97 1.4-.29 2.8-.55 4.2-.76.7-.11 1.4-.19 2.09-.24.67-.04 1.42-.08 1.95.05-.01.01-.16-.11-.6-.23-.43-.13-1.13-.24-2.04-.3-1.81-.11-4.45-.03-7.61.44-.39.06-.8.13-1.21.19-.21.04-.43.08-.65.12-.2.04-.39.08-.59.13-.79.15-1.6.23-2.47.25-.86.01-1.75-.05-2.66-.17-.45-.07-.92-.14-1.38-.24-.23-.05-.46-.1-.69-.16l-.77-.2c-2.18-.36-4.28-.29-6.5-.2-1.11.06-2.23.15-3.36.28-.56.07-1.13.15-1.71.22l-.86.13-.43.07-.21.04-.09.02-.04.01-.02.01h-.01c.01-.22 0 .42 0-.7zM140.97 68.8c3.01 2.38 5.9 5.04 8.65 7.78 2.75 2.75 5.38 5.63 7.84 8.64 2.46 3.01 4.76 6.16 6.85 9.43 2.09 3.27 3.97 6.68 5.51 10.24 1.55 3.55 2.8 7.23 3.65 11.01.8 3.78 1.18 7.65 1.08 11.51-.06 3.87-.83 7.69-1.92 11.39l-.92 2.75c-.36.9-.77 1.78-1.15 2.66l-.58 1.33-.7 1.28-1.39 2.55s.37-.57 1.08-1.65c.35-.55.79-1.22 1.3-2.02.44-.84.94-1.81 1.5-2.9 1.09-2.2 2.15-5.03 3.04-8.41.75-3.41 1.28-7.39 1.09-11.78-.17-4.39-1.1-9.15-2.75-13.97-1.67-4.83-4.12-9.7-7.19-14.42-3.06-4.74-6.78-9.3-10.98-13.6-4.2-4.27-8.9-8.37-14.01-11.82z"/><path d="M147.57 68.79c5.82 4.81 11.2 10.31 16.05 16.16 4.82 5.88 9.16 12.2 12.44 19.05 3.33 6.81 5.52 14.21 5.95 21.77.15 3.78-.17 7.56-.94 11.26-.8 3.7-2.19 7.24-3.84 10.65 0 0 .33-.58.95-1.68.3-.56.7-1.23 1.12-2.06.37-.85.79-1.83 1.27-2.93.47-1.11.81-2.4 1.27-3.79.23-.7.34-1.45.53-2.23.15-.78.39-1.58.47-2.43.53-3.38.63-7.3.15-11.56-.49-4.26-1.63-8.84-3.48-13.47-1.84-4.63-4.36-9.32-7.44-13.88-6.18-9.11-14.61-17.86-24.5-24.86z"/><path d="M157.36 68.71c5 5.25 9.61 10.99 13.81 16.95 4.2 5.97 7.95 12.27 11 18.89 2.99 6.63 5.34 13.62 6.06 20.85.36 3.6.4 7.25-.2 10.82-.57 3.57-1.66 7.04-3.22 10.3 0 0 .3-.56.88-1.62.62-1.05 1.32-2.69 2.11-4.85 1.46-4.33 2.59-11.15 1.23-19.28-1.28-8.11-4.81-17.31-10.27-26.31-5.47-8.98-12.72-17.98-21.4-25.75zM70.95 22.9c-5.17 3.64-9.87 7.74-14.33 12.12-4.44 4.39-8.59 9.08-12.37 14.05-7.55 9.94-13.62 21.07-17.43 32.99-1.86 5.97-3.15 12.11-3.88 18.32-.68 6.22-.63 12.49-.18 18.72 1.23 12.44 4.68 24.59 9.76 35.96 0 0-.37-1.03-1.06-2.99-.69-1.95-1.81-4.79-2.83-8.55-2.19-7.44-4.8-18.45-4.77-32.04.04-13.53 3.24-29.6 11.34-45.19.5-.97 1.01-1.95 1.52-2.94.55-.96 1.11-1.93 1.67-2.9l.84-1.46.9-1.43c.6-.96 1.21-1.92 1.82-2.88 2.53-3.8 5.3-7.56 8.28-11.24 2.99-3.67 6.23-7.23 9.66-10.69 1.73-1.72 3.49-3.42 5.33-5.07 1.84-1.63 3.7-3.24 5.73-4.78zM102.8 13.9c4.55-1.86 9.39-3.31 14.23-4.47 4.86-1.15 9.79-2.01 14.75-2.53 9.92-1.02 20.02-.78 29.79 1.24 4.88 1.02 9.68 2.41 14.32 4.26 4.6 1.91 9.08 4.15 13.28 6.85 8.4 5.39 15.74 12.37 21.94 20.21l-1.5-2.05c-.5-.67-1.11-1.5-1.84-2.48-.72-.99-1.68-2.01-2.69-3.21-.52-.6-1.06-1.23-1.63-1.89-.6-.63-1.26-1.27-1.93-1.96-.68-.68-1.38-1.39-2.12-2.12-.76-.71-1.59-1.4-2.43-2.13-3.33-2.97-7.49-5.93-12.34-8.72-9.66-5.62-22.69-9.73-37.16-10.13-7.22-.26-14.76.39-22.32 1.88-7.55 1.54-15.22 3.86-22.35 7.25zM225.83 57.47c.25.16.6.45.89.69l.89.82c.54.61 1.14 1.17 1.62 1.84 1.05 1.27 1.92 2.69 2.79 4.11.74 1.49 1.6 2.93 2.18 4.51l.96 2.32.77 2.4c.25.8.52 1.6.76 2.4l.57 2.46.58 2.46c.19.82.28 1.67.42 2.5.23 1.67.58 3.33.72 5.02l.43 5.06.11 1.27.03 1.27.05 2.54c.02 1.7.11 3.39.06 5.09l-.2 5.09c-.08 1.7-.08 3.4-.29 5.08l-.48 5.07c-.18 1.69-.26 3.39-.55 5.07l-1.48 10.1s.58-2.32 1.5-6.51c.44-2.1 1.07-4.64 1.46-7.64.21-1.5.44-3.09.69-4.78.11-.85.23-1.72.35-2.61.09-.89.14-1.81.22-2.76.12-1.88.26-3.85.39-5.9.1-2.05.02-4.18.02-6.38-.03-1.1.01-2.22-.09-3.35-.1-1.13-.2-2.28-.3-3.44-.11-1.16-.2-2.34-.34-3.53-.2-1.18-.41-2.38-.61-3.59-.81-4.82-2.26-9.79-4.46-14.55-.28-.59-.56-1.18-.85-1.78-.29-.59-.66-1.14-.99-1.72-.34-.57-.68-1.13-1.02-1.7l-1.18-1.61-.59-.8-.66-.75c-.46-.48-.85-1.02-1.35-1.45-.49-.44-.94-.92-1.47-1.3-.51-.37-1.08-.77-1.55-1.02z"/><path d="M242.04 108.14c.94 6.01 1.65 12.1 2.09 18.17.42 6.08.64 12.2.03 18.22-.34 2.98-.84 6.02-2.17 8.58-.67 1.25-1.62 2.34-2.85 2.71-.61.19-1.28.22-1.95.1-.65-.11-1.39-.39-2.1-.61-2.85-.93-5.63-2.2-7.89-4.08-1.1-.96-2.09-2.06-2.73-3.34-.64-1.25-.96-2.77-.76-4.04.02-.05-.18.41-.19 1.38-.01.95.2 2.44 1.16 4.11.96 1.66 2.69 3.38 5.03 4.83.6.33 1.19.74 1.86 1.05.66.31 1.34.65 2.06.95.73.27 1.47.55 2.24.84.79.28 1.73.49 2.7.42.98-.06 1.99-.45 2.8-1.08.82-.62 1.45-1.43 1.95-2.29 1-1.73 1.56-3.65 1.99-5.62.81-3.96.98-8.2.87-12.6-.28-8.78-1.71-18.24-4.14-27.7zM142.78 59.9c9.57 4.62 18.81 10.12 27.58 16.19 8.75 6.11 17.06 12.9 24.33 20.7 7.24 7.77 13.49 16.68 16.89 26.74 1.65 5.02 2.61 10.3 2.47 15.59-.05 2.64-.33 5.28-.84 7.88-.53 2.59-1.28 5.14-2.2 7.63l1.04-2.49c.59-1.66 1.48-4.13 2.11-7.43.63-3.3.98-7.43.55-12.2-.48-4.75-1.76-10.1-4.21-15.57-4.83-10.99-14-22.17-25.83-31.92-5.91-4.91-12.47-9.51-19.5-13.75-7.03-4.22-14.54-8.14-22.39-11.37z"/><path d="M142.89 54.01c10.44 3.58 20.63 8.12 30.4 13.32 9.76 5.23 19.14 11.26 27.58 18.41 8.39 7.15 15.91 15.56 20.76 25.48 2.38 4.95 4.09 10.25 4.77 15.71.34 2.72.47 5.48.37 8.22-.13 2.75-.48 5.48-1.01 8.18 0 0 .22-.94.65-2.73.33-1.8.84-4.48.95-7.97.12-3.48-.17-7.78-1.3-12.61-1.18-4.8-3.23-10.13-6.46-15.43-3.19-5.32-7.47-10.63-12.64-15.64-5.17-5.02-11.2-9.76-17.88-14.1-6.68-4.35-13.99-8.32-21.75-11.83-7.74-3.49-15.96-6.63-24.44-9.01zM24.28 153.4c-.09 5.16.4 10.24 1.59 15.23.63 2.48 1.4 4.94 2.54 7.26 1.15 2.31 2.61 4.49 4.48 6.32 0 0-.47-.85-1.3-2.21-.69-1.47-1.71-3.47-2.48-6.09-1.66-5.2-3.03-12.3-4.83-20.51zM34.84 196.81c.46.85.93 1.94 1.39 2.93l1.41 3.05c.96 2.03 1.98 4.03 3.11 5.99 1.14 1.95 2.35 3.88 3.91 5.6.79.85 1.66 1.67 2.78 2.23.26.16.59.23.89.34.32.05.65.15.99.12.69.04 1.33-.25 1.9-.55 0 0-.23.05-.66.15-.21.04-.49.03-.78.04-.3-.05-.64-.07-.97-.23-1.38-.52-2.63-2.07-3.91-4.07-1.28-2.01-2.63-4.5-4.24-7.21-.8-1.36-1.67-2.77-2.63-4.2-.48-.72-.98-1.44-1.51-2.16-.53-.69-1.1-1.48-1.68-2.03zM218.75 209.02c3.34-2.08 6.53-4.29 9.59-6.74 1.52-1.23 3-2.53 4.37-3.97.68-.73 1.33-1.49 1.9-2.32.57-.84 1.09-1.76 1.3-2.86 0 0-.1.17-.28.5-.19.31-.5.72-.92 1.19-.86.92-2.19 2.02-3.85 3.31-3.32 2.56-7.82 5.93-12.11 10.89zM123.8 262.53c-.62.31-1.03.65-1.46 1.11a3.67 3.67 0 00-.87 1.64c-.28 1.27.18 2.44.75 3.31 0 0 .11-.29.23-.69.12-.4.29-.92.43-1.35.17-.46.26-.75.3-1.29.1-.53.09-1.37.62-2.73z"/><g><path d="M120.35 261.99c-.61.49-1.08.99-1.48 1.7-.18.35-.35.76-.35 1.23-.01.47.18.94.43 1.27 0 0 .11-.28.27-.57.19-.32.48-.56.74-.68.51-.23.56-.58.39-2.95z"/></g><g><path d="M77.18 172.38c1.23 1.25 2.52 2.1 3.94 2.84 1.42.71 2.89 1.31 4.43 1.67 3.05.79 6.23.92 9.31.61 3.11-.26 6.09-1.13 9.01-2.08l2.15-.84 1.07-.42.13-.05.07-.02.26-.09.53-.17c1.42-.44 2.87-.87 4.29-1.16.35-.07.7-.12 1.02-.15l.23-.01c.15 0 .24-.01.35-.02.22-.02.43-.05.66-.1.43-.08 1.24-.39 1.48-.98.17-.28.14-.62.09-.93-.01-.16-.12-.3-.18-.46-.07-.17-.14-.28-.22-.37l-.23-.3-.23-.23-.28-.28c-.07-.05-.15-.08-.22-.13l-.13-.07-.98-.54-1.97-1.07c-.1-.06-.12-.06-.13-.08l-.22-.19-.41-.36c-.3-.25-.6-.49-.91-.72-.61-.47-1.25-.91-1.89-1.34-1.28-.86-2.65-1.58-4.04-2.26-2.8-1.31-5.82-2.19-8.93-2.43-3.1-.24-6.26.22-9.17 1.33 0 0 .54-.11 1.55-.33.5-.11 1.12-.27 1.87-.31.75-.05 1.58-.21 2.54-.15l1.5.03c.52.06 1.07.13 1.64.2.57.04 1.15.2 1.75.33.3.07.61.13.92.2.31.09.61.19.93.29 2.51.77 5.23 2.05 7.94 3.86.68.45 1.35.94 2.02 1.46l.99.81.49.42.56.51c.81.46 1.64.94 2.48 1.42l.62.35c.09.05.26.15.21.12l.02.02.1.11c.16.15.22.26.29.35v.01l-.26.06c-.17.03-.42.05-.55.06-.32 0-.61.03-.88.06-1.08.16-2.07.42-3.08.7-1.02.29-1.97.59-3.05.97-.97.4-1.95.8-2.94 1.21-3.95 1.49-8.26 2.72-12.85 2.8-2.3.07-4.64-.21-6.97-.82-2.36-.67-4.61-1.59-6.72-3.34zM115.27 166.71c-1.87-2.74-3.97-5.22-6.44-7.4-2.44-2.14-5.37-4.06-8.82-4.41 0 0 .55.29 1.5.8.9.57 2.08 1.35 3.38 2.46 2.62 2.21 5.8 5.3 10.38 8.55zM72.91 163.78c2.16-2.27 4.6-4.41 7.26-6.11 1.33-.85 2.72-1.62 4.19-2.12 1.46-.51 2.99-.81 4.49-.64l-.37-.17c-.25-.09-.62-.29-1.13-.4-1.01-.22-2.6-.3-4.43.2-1.8.51-3.79 1.54-5.58 3.1-1.77 1.55-3.41 3.64-4.43 6.14z"/><path d="M90 161.7c-1.13.85-2.01 1.82-2.68 3.07-.65 1.24-.79 2.87-.23 4.2.52 1.36 1.54 2.27 2.51 3.1.53.36 1.03.76 1.58 1.07l1.65.9s-.28-.43-.8-1.06c-.52-.61-1.26-1.5-2.02-2.49-.79-1-1.51-2.1-1.63-3.45-.14-1.38.43-3.25 1.62-5.34zM97.55 174.86c1.08-.49 1.99-1.05 2.89-1.75.88-.7 1.71-1.51 2.31-2.54.6-1.02.89-2.29.72-3.47-.12-1.22-.74-2.22-1.34-3.15 0 0 .01.48.09 1.19.06.71.07 1.7-.16 2.64-.45 1.87-2.03 3.76-4.51 7.08z"/><path d="M91.31 167.51c.34.85.74 1.52 1.42 2.16.65.62 1.67 1.04 2.62.94.94-.09 1.74-.48 2.37-.95.34-.22.63-.48.91-.74l.3-.27c.1-.12.28-.19.27-.37l.07-.48.03-.31c.05-.77.03-1.56-.18-2.37-.19-.79-.71-1.7-1.61-2.11-.22-.08-.45-.19-.67-.22l-.66-.06c-.41.03-.83.07-1.21.18-.76.2-1.44.53-2.11.85 0 0 .59-.03 1.52-.09.48 0 1.04-.02 1.62.09.58.13 1.08.39 1.29.86.24.46.33 1.15.32 1.95-.01.2-.01.4-.02.61l-.02.31c0 .07 0 .02.01.04.01 0 .01.01 0 .03l-.21.21c-.16.17-.32.33-.49.47-.68.59-1.39 1.18-2.42 1.17-.52 0-1.09-.22-1.61-.56-.55-.34-1.05-.73-1.54-1.34zM77.28 169.42c-.89.78-2.11 1.52-3.17 1.58-1.05.09-1.88-.81-2.32-2.05 0 0-.14.27-.24.78-.1.5-.09 1.29.54 2.11.33.38.85.72 1.45.83.6.13 1.23.01 1.77-.23 1.05-.51 1.86-1.63 1.97-3.02z"/><path d="M77.35 168.34c-.34.25-.93.51-1.44.58-.53.08-1.06.02-1.58-.17-1.03-.42-1.92-1.36-2.59-2.46 0 0-.09.3-.1.81-.01.26 0 .57.09.9.07.34.2.71.44 1.08.43.72 1.39 1.49 2.62 1.48 1.19.02 2.47-.94 2.56-2.22z"/><path d="M78.06 167.55c-1.22.16-2.64.14-3.81-.24-.59-.19-1.13-.48-1.56-.87-.42-.41-.69-.94-.87-1.53 0 0-.17.24-.31.76-.05.25-.06.57-.01.95.09.35.23.78.53 1.15.56.77 1.62 1.34 2.75 1.36 1.11.01 2.38-.48 3.28-1.58zM76.58 169.19c-1.07.54-2.3 1.01-3.48 1.25-1.18.25-2.44.24-3.22-.41 0 0-.01.07 0 .19.02.12.03.33.14.55.19.44.75 1.01 1.57 1.28 1.62.55 4.01-.19 4.99-2.86z"/><path d="M78.89 167.23c-2.13.14-4.74-.32-5.83-2.18 0 0-.11.25-.15.74-.01.46.14 1.18.68 1.78.52.61 1.38 1.08 2.37 1.1.96.02 2.11-.4 2.93-1.44z"/><path d="M79.26 167c.01-.25.05-.52.1-.74l.02.01c.03.01-.02 0-.05-.01l-.18-.06-.41-.16c-.28-.11-.56-.23-.84-.36-.56-.25-1.12-.52-1.66-.81-.54-.29-1.08-.59-1.57-.93-.48-.31-1-.75-1.15-1.02.02 0-.22.16-.16.66.04.48.3 1.15.78 1.74.48.59 1.18 1.12 2.1 1.37a4.757 4.757 0 002.42-.01c.15-.04.3-.09.45-.15l.21-.11c.05-.01.04-.05.04-.08v-.02c0 .01.01-.08-.02.07-.04.21-.07.41-.08.61z"/><path d="M73.34 162.26c.45 1.42 1.38 2.65 2.5 3.5 1.14.86 2.36 1.43 3.76 1.76l3.93.95-3.31-2.31c-.9-.63-1.79-1.31-2.62-2.03-.41-.36-.81-.74-1.18-1.13-.36-.38-.69-.82-.82-1.17.01 0-.07.13-.05.45 0 .32.14.82.4 1.4.54 1.17 1.61 2.62 3.27 3.88l.77-1.71c-.89-.24-2-.6-3.11-1.07-1.13-.5-2.37-1.17-3.54-2.52z"/><path d="M81.18 165.35c-.85-.63-1.7-1.31-2.51-2.01-.4-.35-.79-.71-1.16-1.08-.35-.36-.72-.79-.86-1.09.02 0-.21.16-.26.61-.07.44 0 1.07.27 1.67.54 1.22 1.9 2.37 4.52 1.9z"/><path d="M81.71 164.6c-.82-.65-1.65-1.32-2.45-2.01-.4-.34-.79-.7-1.16-1.05-.19-.18-.36-.36-.53-.54-.07-.08-.16-.18-.21-.26l-.07-.1c-.02-.02.02.01-.01.03-.13.05-.27.06-.41.03 0 0 .05.01.15.01.05 0 .11 0 .17-.02 0-.01-.03 0-.05 0-.09.03-.14.22-.17.43-.05.44.04 1.04.3 1.63.53 1.17 1.83 2.26 4.44 1.85z"/><path d="M82.86 164.19c-.01-.17.01-.34.06-.5.02-.08.06-.16.1-.23.02.01 0 0 0 0l-.08-.02-.24-.11c-.17-.09-.36-.19-.54-.29-.36-.21-.72-.45-1.07-.69-.35-.25-.69-.51-.99-.78-.15-.14-.3-.28-.42-.41-.06-.07-.12-.14-.15-.19-.01-.02-.05-.07-.05-.07s0-.01-.01-.01h-.01c-.04 0-.08.01-.13.01h.08c-.02.01-.06.02-.1.04-.1.04-.17.18-.23.37-.1.38-.07.95.17 1.48.23.52.67 1 1.34 1.23.34.11.73.16 1.18.11.22-.03.47-.08.71-.17.12-.05.24-.1.34-.18.05-.04.1-.08.13-.13 0-.01 0-.05-.01-.03-.02.06-.04.12-.06.19-.01.1-.03.24-.02.38z"/><path d="M84.32 162.91l-1.75-.95-.85-.5-.4-.25-.18-.12-.06-.04-.01-.01c.03 0-.03.07-.08.11-.1.09-.22.15-.36.17 0 0 .05 0 .14-.04.04-.02.1-.04.15-.08.02-.02.07-.05.08-.06h-.04c-.07.06-.11.21-.12.38-.03.35.02.81.2 1.21.36.8 1.29 1.31 3.28.18zM84.81 163.11c.03-.23.08-.45.16-.67l.06-.16.03-.08c.01-.01.01 0 .01 0l.03.01c.03.01.12.06.08.04l-.08-.05-.18-.1-.38-.23-.78-.48-1.54-.98c-.51-.33-1.01-.67-1.51-1.02-.25-.17-.49-.35-.72-.53-.11-.09-.24-.18-.33-.27l-.15-.13-.04-.04-.02-.02-.01-.01c-.02.01.04-.03-.07.02-.01.01.05-.02.05-.02 0 .01-.01.02-.01.03-.01.02-.03.06-.05.12-.05.11-.02.31.01.54.09.47.32 1.09.73 1.68.42.59 1.03 1.14 1.88 1.47.43.16.91.28 1.46.3.28.01.57.01.88-.02.15-.02.31-.04.47-.07.08-.01.15-.04.23-.06.03-.02.1-.01.09-.05a.304.304 0 00-.08-.08c.01-.09-.09.17-.14.33-.02.17-.05.34-.08.53z"/><path d="M85.84 161.93c-.86-.66-1.71-1.42-2.47-2.21-.74-.78-1.49-1.69-1.72-2.55 0 0-.05.04-.12.14-.07.09-.19.25-.24.46-.16.43-.19 1.09.03 1.78.41 1.37 1.85 2.76 4.52 2.38z"/><path d="M87.08 161.82c-1.4-1.3-2.83-2.92-3.36-4.68 0 0-.19.19-.38.58-.17.38-.32.99-.21 1.63.18 1.29 1.39 2.77 3.95 2.47z"/><path d="M86.67 162.09c-.88-1.49-1.77-3.08-2.29-4.66 0 0-.2.19-.4.53s-.39.85-.41 1.4c-.04 1.1.65 2.41 3.1 2.73z"/><path d="M88.78 161.86c-.48-.45-.97-.94-1.41-1.44-.22-.25-.44-.5-.62-.75-.09-.12-.18-.25-.24-.36a.482.482 0 01-.07-.15c-.01-.02-.02-.05-.02-.04h-.01c-.06 0-.12-.01-.18-.03-.03 0 .19.02.02.03-.1.01-.22.09-.32.23-.21.28-.35.78-.3 1.24.09.93.92 1.83 3.15 1.27z"/><path d="M89.63 161.34l-3.98-3.72c0 .01-.97 4.4 3.98 3.72z"/><path d="M90.7 160.47c-.51-.18-1.15-.64-1.49-1.18-.38-.54-.56-1.24-.55-1.97 0 0-.24.1-.53.35-.29.25-.61.68-.69 1.27-.07.58.16 1.31.78 1.74.31.21.7.34 1.15.33.41-.03.96-.15 1.33-.54z"/><path d="M92.13 160.57c-.6-.37-1.21-.8-1.76-1.24-.27-.23-.53-.46-.76-.7-.22-.23-.39-.52-.42-.6.02.01-.26.01-.44.33-.19.31-.26.86-.12 1.34.28.99 1.37 1.82 3.5.87z"/><path d="M94.11 160.12c-.39-.34-.79-.72-1.15-1.1a6.83 6.83 0 01-.51-.58c-.07-.09-.15-.19-.2-.27l-.06-.11c-.06-.05.09 0-.23-.03 0 0 .02 0 .06.01h.05c-.02 0-.04.01-.06.01-.1.01-.22.08-.32.21-.22.25-.38.68-.37 1.08.01.8.71 1.52 2.79.78z"/><path d="M95.09 160.51c-.25-.38-.5-.82-.71-1.24-.21-.39-.39-.92-.41-1.1.01.01-.23-.06-.52.1-.29.15-.59.48-.71.84-.26.72.19 1.6 2.35 1.4z"/><path d="M95.81 160.68a6.09 6.09 0 01-.35-.96c-.04-.16-.08-.31-.09-.44l-.02-.16c0-.02 0-.02-.01-.04-.03-.02-.11-.05-.15-.11l.01.01a.628.628 0 00-.35-.13c-.31-.03-.7.15-.92.42-.46.54-.23 1.39 1.88 1.41z"/><path d="M96.86 161.23c.06-.38.08-.72.09-1.1 0-.19 0-.38-.02-.59-.03-.21-.03-.43-.22-.79 0 0-.13.26-.4.41-.26.16-.6.26-.82.37-.44.25-.4.54 1.37 1.7zM104.03 163.74c.3.55.61 1.07.93 1.61.16.27.33.53.51.79.2.28.32.5.71.87 0 0 0-.32.14-.63.12-.32.29-.7.33-1.08.07-.75-.36-1.46-2.62-1.56zM100.71 162.18c.22.69.48 1.27.89 1.86.38.56 1.03 1.21 1.95 1.26 0 0-.15-.26-.25-.58-.1-.35-.08-.73-.07-1.02.02-.62-.28-.9-2.52-1.52zM78.15 171.49c-.56.17-1.17.32-1.75.44-.29.06-.58.1-.85.13-.14.01-.25.01-.35.01h-.04c-.02.01-.02-.03-.05.09-.03.08-.12.18-.16.21 0 .01-.01.03-.04.03 0 0 .03 0 .04-.02v-.01l.04-.04s-.01.02-.02.03c-.03.05-.05.13-.03.21.07.34.4.72.79.92.78.42 1.85.18 2.42-2z"/><path d="M79.13 172.19c-.67.3-1.41.59-2.11.8-.36.11-.71.2-1.04.24-.16.03-.32.03-.41.02h-.06c-.05.02.04-.04-.03.05-.16.17-.06.08-.09.12 0 0 .01-.01 0-.01-.08.03-.17.15-.14.33.08.36.55.75 1.06.91 1.03.33 2.36-.14 2.82-2.46z"/><path d="M79.47 172.79c-.53.51-1.11 1.02-1.69 1.47-.29.23-.59.45-.88.63-.15.09-.3.17-.42.23-.06.03-.13.06-.15.06-.01.01-.06.01-.03.03a.37.37 0 01-.07.26s.01-.02.03-.04c.01 0 .05-.13.03-.07-.04.1.04.22.17.35.28.24.81.39 1.32.35 1.01-.09 2.04-.94 1.69-3.27zM151.48 149.54c.81-1.57 1.65-3.14 2.53-4.67.44-.77.89-1.52 1.36-2.26.24-.37.48-.72.73-1.06.13-.15.26-.33.38-.46l.18-.19c.04-.04.02-.01.03-.02v-.01c-.01-.03-.05-.21-.05-.31 0 0 0 .09.04.25 0 .02-.03-.03-.07-.06-.1-.05-.36.01-.65.1-.59.21-1.35.69-2.09 1.4-1.45 1.42-2.79 3.83-2.39 7.29zM156.19 148.66c.95-1.77 1.91-3.54 2.89-5.3l1.49-2.61.77-1.28.4-.61.2-.28.09-.1-.05-.07-.1-.16c-.03-.02-.05-.04-.07-.06a.198.198 0 01-.04-.18c.01-.01-.05.12.09.23.03.02.12.18.13.19l-.02-.01c-.01-.01-.04-.02-.09 0-.16.03-.41.15-.71.32-.6.35-1.38.94-2.15 1.78-1.53 1.67-3 4.35-2.83 8.14zM161.93 146.07c.57-1.47 1.17-2.95 1.81-4.4.32-.72.65-1.44 1-2.14.18-.35.36-.69.55-1.01.1-.16.2-.31.29-.44.05-.06.1-.13.13-.16.02-.03.03-.02.02-.04-.1-.22-.16-.24-.15-.38 0 0-.01.04.01.12.01.05.03.05.07.14.03.08-.01 0-.03 0-.1-.04-.33-.01-.59.11-.53.22-1.21.7-1.82 1.39-1.19 1.4-2.16 3.68-1.29 6.81zM166.48 144.55c.58-1.61 1.19-3.22 1.83-4.81.32-.79.66-1.58 1.02-2.34.18-.38.37-.76.57-1.11.1-.18.2-.34.31-.5.05-.06.11-.14.14-.18.03-.03.03-.04.03-.03-.09-.2-.17-.25-.16-.39 0 0-.01.05.01.12.01.05.03.04.08.15.02.04-.02-.01-.04-.01-.11-.03-.35.02-.62.16-.54.27-1.23.82-1.85 1.6-1.23 1.56-2.2 4.05-1.32 7.34zM171.71 142.78c.65-1.64 1.36-3.3 2.12-4.9.38-.8.78-1.59 1.21-2.35.22-.38.44-.75.68-1.08.12-.16.25-.32.37-.45.06-.07.12-.11.17-.15.02-.01.03-.01.04-.03 0-.02-.07-.15-.04-.24 0 0-.01.04 0 .1.02.12.02.01-.04 0-.1-.07-.34-.04-.63.06-.59.21-1.36.73-2.06 1.5-1.39 1.56-2.54 4.13-1.82 7.54zM177.55 140.48c.32-1.63.7-3.28 1.16-4.87.23-.8.48-1.59.79-2.34.15-.37.32-.74.51-1.05.09-.15.2-.31.29-.4.05-.06.09-.08.12-.11.01 0 .02-.01.02-.02-.01-.02-.02-.06-.01-.1v.04c0 .03 0-.07-.04-.08-.07-.09-.3-.09-.57 0-.56.2-1.27.79-1.83 1.61-1.15 1.64-1.82 4.26-.44 7.32zM182.01 139.35c.61-1.39 1.26-2.78 1.94-4.14.34-.68.7-1.35 1.08-1.99.19-.32.39-.64.59-.93.1-.14.21-.3.31-.4.05-.05.11-.13.15-.16.03-.04.08-.01.07-.12.03.08-.03-.01-.13-.03-.11-.06-.33 0-.6.06-.52.17-1.23.58-1.86 1.21-1.26 1.26-2.32 3.42-1.55 6.5zM186.14 138.14c.41-1.31.85-2.64 1.33-3.93.24-.65.49-1.28.77-1.9.14-.31.29-.61.44-.88.08-.14.16-.26.24-.37l.09-.1c-.01-.02.03.01-.02-.04a.53.53 0 01-.08-.15c-.04-.15-.06-.11-.04-.2-.01.02-.02.04.06.24-.05-.08-.27-.08-.51.01-.49.17-1.12.6-1.65 1.22-1.07 1.27-1.8 3.34-.63 6.1zM190.26 137.57c.21-1.06.48-2.15.82-3.18.17-.52.36-1.02.58-1.48.11-.23.24-.45.36-.6.13-.22.25-.17.23-.3 0 .14.04-.28-.44-.28-.44-.01-1.09.29-1.58.79-.99 1.01-1.51 2.85.03 5.05zM193.12 137.41c.4-.9.85-1.82 1.36-2.66.25-.42.52-.84.81-1.19.14-.18.3-.34.44-.45.16-.18.24-.07.25-.24-.04.17.1-.25-.34-.36-.4-.13-1.07-.01-1.62.33-1.14.67-1.98 2.22-.9 4.57zM197.01 138.1c.14-.65.32-1.33.53-1.97.11-.31.22-.63.36-.91.07-.13.14-.27.21-.37.04-.06.07-.09.09-.13.02-.02.02-.03.02-.03.01 0 0 .01-.03-.12.05.19-.02-.19-.39-.22-.35-.07-.87.05-1.26.33-.79.56-1.16 1.78.47 3.42zM198.84 139.47c.44-.75.92-1.52 1.42-2.24.25-.36.51-.71.78-1.03.14-.16.27-.3.4-.43.05-.04.14-.13.16-.13l.02-.02c0-.01.02.01-.01-.1-.05-.07-.06-.17-.01-.27 0 0-.05.07-.02.2.04-.11-.11-.19-.29-.26-.38-.11-.97-.04-1.48.21-1.03.5-1.86 1.76-.97 4.07zM201.44 140.32c.47-.5 1.01-1 1.54-1.45.27-.22.54-.43.82-.61.26-.18.57-.32.72-.34-.01.01-.02-.25-.32-.47-.29-.23-.78-.39-1.28-.34-.99.07-1.99.94-1.48 3.21zM203.86 141.63c.83-.6 1.89-1.27 2.7-1.43 0 0-.05-.23-.25-.5-.2-.26-.57-.53-.97-.62-.8-.19-1.74.35-1.48 2.55zM205.35 143.29c.89-.49 1.91-.92 2.91-1.19 0 0-.5-.88-1.24-1.13-.7-.28-1.66.11-1.67 2.32zM207.02 145.06c.35-.24.77-.48 1.16-.66.38-.18.84-.31 1.03-.29 0 0 .08-.22-.03-.53-.1-.31-.39-.64-.76-.8-.71-.33-1.67.13-1.4 2.28zM120.55 148.49c-.94-1.54-1.89-3.06-2.89-4.55-.5-.75-1.02-1.49-1.56-2.22-.27-.37-.56-.73-.86-1.08-.17-.18-.31-.35-.51-.53l-.31-.27c-.13-.1-.36-.2-.55-.26 0 0 .14.1.32.3.15.2.21.45.31.76.18.6.36 1.43.73 2.34.72 1.83 2.14 4.01 5.32 5.51zM115.83 147.59c-1.06-1.73-2.13-3.44-3.22-5.14l-1.67-2.54-.87-1.26-.47-.63-.26-.32-.17-.18-.14-.12-.04-.03c-.04-.02-.09-.05-.14-.07a.853.853 0 00-.31-.06c-.01.01.16-.01.4.14.07.08.15.19.17.3.08.22.12.49.19.83.14.68.34 1.62.75 2.66.81 2.11 2.41 4.64 5.78 6.42zM110.19 145.2c-.7-1.46-1.42-2.9-2.18-4.32-.38-.71-.78-1.42-1.2-2.12-.21-.35-.44-.7-.68-1.05-.12-.17-.26-.35-.41-.52-.09-.09-.16-.18-.28-.28-.11-.08-.25-.23-.62-.28-.03-.01.33.1.41.31.11.2.16.44.2.73.08.57.14 1.34.37 2.2.42 1.72 1.49 3.78 4.39 5.33zM105.66 143.73c-.71-1.6-1.43-3.17-2.21-4.74-.39-.78-.79-1.56-1.22-2.33-.22-.39-.44-.77-.7-1.15-.13-.19-.26-.38-.42-.58-.09-.1-.16-.2-.29-.3-.11-.09-.25-.26-.66-.31-.03-.02.35.11.43.33.11.21.17.47.2.77.08.61.15 1.43.38 2.36.48 1.86 1.57 4.13 4.49 5.95zM100.4 141.9c-.79-1.65-1.61-3.26-2.51-4.85-.45-.79-.91-1.58-1.43-2.36-.26-.39-.53-.77-.84-1.14-.16-.19-.32-.37-.53-.56-.22-.16-.41-.41-.99-.46-.02 0 .24.06.4.25.18.18.28.45.37.75.19.61.34 1.43.65 2.37.62 1.89 1.85 4.17 4.88 6zM94.68 139.94c-.46-1.68-.96-3.31-1.56-4.93-.3-.81-.62-1.62-1.02-2.42-.2-.4-.41-.8-.69-1.19-.15-.2-.29-.39-.51-.59-.21-.18-.5-.42-1-.41-.01.01.19.05.38.21.21.17.31.44.39.73.14.6.17 1.38.32 2.28.3 1.83 1.07 4.11 3.69 6.32zM90.07 138.4c-.74-1.38-1.5-2.73-2.32-4.06-.41-.67-.83-1.33-1.29-1.98-.23-.33-.47-.65-.73-.97-.14-.16-.26-.32-.44-.48-.09-.08-.15-.16-.27-.24-.13-.09-.26-.17-.39-.24.89.28-.38 5.31 5.44 7.97zM86.02 137.38c-.54-1.32-1.1-2.61-1.71-3.89-.31-.64-.63-1.28-.98-1.91-.18-.32-.37-.63-.59-.95-.11-.16-.23-.32-.38-.48-.09-.09-.16-.17-.29-.26a.935.935 0 00-.67-.19s.06.01.16.04c.12.03.22.11.29.2.15.19.19.43.21.69.04.53.03 1.21.17 1.97.27 1.53 1.11 3.35 3.79 4.78zM81.96 136.98c-.36-1.13-.75-2.2-1.24-3.28-.24-.54-.51-1.07-.84-1.59-.17-.26-.35-.52-.61-.78-.23-.24-.6-.56-1.19-.57-.02 0 .49.26.56.74.11.46.06 1 .14 1.6.15 1.21.73 2.6 3.18 3.88zM78.95 136.43c-.56-.94-1.13-1.81-1.79-2.67-.33-.43-.68-.85-1.1-1.25-.21-.2-.43-.4-.72-.57-.25-.17-.67-.37-1.21-.27-.02.01.5.16.65.59.18.41.23.92.41 1.44.36 1.06 1.16 2.15 3.76 2.73zM75.19 137.43c-.29-.71-.59-1.37-.95-2.04-.19-.33-.37-.66-.61-.99-.27-.32-.45-.69-1.14-.96-.02 0 .22.32.17.7-.02.37-.14.77-.16 1.18-.03.8.39 1.57 2.69 2.11zM73.11 138.28c-.59-.75-1.17-1.45-1.81-2.15-.32-.35-.65-.69-1.02-1.02-.18-.16-.38-.33-.61-.48-.14-.08-.22-.15-.42-.23-.1-.03-.17-.07-.29-.09-.15-.02-.32-.01-.47.03 0 0 .13.03.31.12.2.09.24.3.32.48.11.4.14.89.31 1.37.33.97 1.15 1.89 3.68 1.97zM70.2 138.78c-.64-.48-1.26-.9-1.94-1.3-.34-.2-.69-.38-1.07-.55-.39-.15-.78-.33-1.38-.31 0 0 .05.06.14.16.08.1.18.24.26.41.17.33.29.75.5 1.11.42.74 1.21 1.2 3.49.48zM67.46 139.86c-.58-.26-1.13-.47-1.73-.65-.6-.17-1.19-.35-1.97-.3 0 0 .16.23.31.53.15.3.3.68.5.96.4.57 1.03.75 2.89-.54zM65.75 141.4c-1.17-.33-2.29-.53-3.49-.59 0 0 .28.97.73 1.51.48.54 1.12.62 2.76-.92zM64.21 143.23c-.55-.2-1.04-.33-1.6-.44-.56-.07-1.12-.21-1.9.1 0 0 .24.16.44.42.21.25.37.6.54.84.37.49.84.53 2.52-.92zM186.13 170.68c-1.91.73-3.88 1.27-5.91 1.54-2.03.25-4.08.22-6.11-.05-2.02-.28-4.03-.81-5.91-1.6-.47-.19-.93-.41-1.38-.64l-.36-.2c-.09-.07-.23-.09-.31-.12l-.23-.07c-.3-.07-.6-.13-.9-.16-1.16-.12-2.37 0-3.36.21-.77.04-1.75.07-2.59.02-.43-.03-.86-.07-1.26-.14-.39-.07-.84-.23-.79-.23-.03-.02-.07-.05-.05-.1.02-.05 0-.02.1-.28.15-.38.32-.75.53-1.07.21-.31.45-.57.69-.7l.18-.07.09-.02c.09-.03.2-.03.3-.08l.67-.29c1.71-.77 3.38-1.64 4.9-2.85.4-.32.71-.6 1.12-1.07.27-.4.5-.68.81-1.01.57-.64 1.26-1.17 1.96-1.66 1.44-.95 3.09-1.61 4.81-1.91.42-.11.86-.15 1.3-.18.44-.03.87-.1 1.31-.1.88.05 1.77-.02 2.65.15 3.54.42 6.96 1.68 10.22 3.22 0 0-1.01-.58-2.87-1.64-1.93-.88-4.79-2.33-8.79-2.74-1.98-.26-4.25-.11-6.59.62-.59.17-1.15.45-1.74.69-.55.32-1.15.6-1.68 1-.55.37-1.08.81-1.57 1.29-.25.24-.49.5-.72.77-.12.13-.23.29-.34.43-.09.12-.04.06-.08.1l-.15.15c-.84.81-1.96 1.5-3.14 2.14-.59.32-1.21.62-1.84.9l-.85.37c.01 0-.02.01.02-.01l-.11.02-.21.05c-.13.05-.26.1-.39.16-.24.12-.47.27-.65.44-.76.67-1.13 1.46-1.44 2.23l-.11.29c-.06.17-.11.35-.16.53-.13.36-.09.67.1.97.32.57 1.24.94 1.57 1 1.75.42 3.25.32 4.98.2 1.01-.24 1.89-.34 2.83-.31a4.744 4.744 0 01.99.14c.11.02.07.01.23.09.48.25.97.45 1.47.64 1.98.75 4.08 1.25 6.23 1.44 2.14.19 4.33.1 6.45-.34 2.13-.41 4.17-1.17 6.08-2.16z"/><path d="M174.02 170.3c-1.14-.63-2.23-1.33-3.16-2.17-.91-.84-1.65-1.85-1.83-2.95-.2-1.09.21-2.26.94-3.26s1.74-1.89 2.8-2.56c0 0-.11 0-.35.04-.23.04-.57.11-.99.25-.83.3-2.05.83-3.11 2.15-.51.66-.97 1.55-1.04 2.63-.07 1.07.27 2.23.95 3.09 1.34 1.78 3.51 2.61 5.79 2.78zM179.34 159.55c1.07.98 2.09 2.03 2.81 3.22.71 1.17 1.12 2.49.77 3.7-.33 1.22-1.34 2.26-2.51 3.06-1.18.79-2.56 1.41-3.93 1.82 0 0 .13.03.39.05.26.02.65.03 1.14-.01.98-.08 2.42-.3 3.99-1.24.77-.48 1.59-1.15 2.15-2.18.3-.5.47-1.1.57-1.72.06-.62.03-1.27-.15-1.87-.34-1.21-1.09-2.23-2.01-3.02-.94-.78-2.04-1.37-3.22-1.81z"/><path d="M174.13 162.99c.9-.7 2.22-1.22 2.99-.81.39.19.77.56 1.01 1.13.07.13.14.26.18.42l.08.22.04.1.01.03c.02.05.02.02-.01.13-.05.15-.1.3-.16.45-.46 1.19-1.28 2.22-2.29 2.04-.51-.06-1.08-.34-1.59-.73-.53-.37-.99-.87-1.46-1.35 0 0 .14.49.56 1.33.25.37.53.89 1.06 1.33.23.26.59.42.96.63.41.14.89.25 1.42.17.27-.02.51-.14.77-.23.24-.11.47-.27.69-.43.4-.35.77-.76 1.03-1.21.28-.45.49-.94.64-1.45.05-.17.13-.44.16-.66-.06-.21-.17-.49-.21-.6-.11-.26-.18-.52-.35-.77-.29-.5-.67-1.02-1.22-1.37-.52-.38-1.22-.52-1.81-.41-1.17.19-2.05 1.11-2.5 2.04zM157.39 165.54c2.15-3.06 4.65-5.99 7.46-8.49 1.41-1.24 2.92-2.37 4.55-3.23 1.63-.84 3.42-1.41 5.19-1.23 0 0-.15-.06-.44-.18-.29-.12-.75-.24-1.36-.31-1.22-.15-3.1.07-5.1 1.02-4.04 1.84-8.41 6.36-10.3 12.42zM188.41 154.17c1.71.92 3.41 1.91 5.06 2.95 1.62 1.05 3.31 2.13 4.58 3.44 0 0-.02-.1-.04-.27-.04-.17-.09-.44-.23-.75-.24-.64-.74-1.47-1.5-2.31-1.53-1.65-4.16-3.25-7.87-3.06zM194.67 168.26c1.33.57 2.63.93 4.03 1.11 1.38.17 2.87.1 4.22-.56 0 0-.35-.11-.82-.24-.45-.15-1.05-.36-1.72-.59-.65-.2-1.37-.37-2.26-.36-.93.01-1.97.22-3.45.64zM194.35 166.99c1.27.21 2.45.23 3.68.07 1.21-.17 2.44-.56 3.47-1.32 0 0-.33-.07-.77-.14-.46-.09-1.02-.2-1.61-.27-.59-.06-1.22-.06-1.96.17-.78.23-1.59.71-2.81 1.49z"/><path d="M193 165.92c1.06.18 2.02.18 3.03.03.99-.16 2-.53 2.81-1.2 0 0-1-.25-2.03-.5-.47-.08-.94-.09-1.52.14-.6.23-1.22.73-2.29 1.53z"/><path d="M191.92 165.23c1.29-.09 2.51-.26 3.76-.54.62-.14 1.24-.32 1.86-.57.61-.25 1.24-.55 1.77-1.12 0 0-.09 0-.25.01-.16 0-.36.03-.6 0-.48-.01-1.08-.13-1.72-.15-1.32-.03-2.85.28-4.82 2.37z"/><path d="M190.9 164.38c1.14-.2 2.21-.47 3.3-.8 1.08-.34 2.15-.75 3.16-1.37 0 0-.3-.1-.73-.2-.44-.11-.99-.23-1.6-.26-1.24-.03-2.59.39-4.13 2.63z"/><path d="M189.14 163.17c1.1.12 2.03.02 3.01-.2.96-.22 1.88-.6 2.7-1.11 0 0-.27-.13-.64-.25-.38-.13-.87-.3-1.35-.36-.5-.07-.99-.05-1.55.23-.59.26-1.13.83-2.17 1.69z"/><path d="M189.72 162.3c.9-.04 1.69-.16 2.53-.39.82-.24 1.67-.59 2.34-1.31 0 0-.28-.05-.66-.11-.38-.09-.8-.22-1.21-.29-.86-.15-1.58.09-3 2.1zM188.15 162.04c1.5-.74 2.92-1.51 4.16-2.76 0 0-.28-.06-.65-.12-.38-.07-.84-.14-1.29-.1-.92.08-1.73.61-2.22 2.98z"/><path d="M186.95 161.1c1.43-.61 2.8-1.19 4.16-2.13 0 0-.25-.12-.6-.25s-.78-.29-1.22-.32c-.9-.07-1.8.38-2.34 2.7z"/><path d="M186.17 160.76l3.06-2.77s-.94-.46-1.79-.33c-.85.12-1.63.82-1.27 3.1z"/><path d="M185.01 160.77c.67-.59 1.28-1.18 1.88-1.84.3-.33.58-.67.85-1.04.26-.39.54-.77.66-1.44 0 0-.07.05-.19.12-.11.08-.27.16-.47.21-.37.12-.83.19-1.27.37-.87.36-1.59 1.15-1.46 3.62z"/><path d="M184.38 159.65c.56-.47 1.08-.93 1.59-1.46.25-.26.5-.53.74-.84.12-.15.24-.32.35-.53.09-.2.26-.46.18-.94.01-.02-.19.43-.57.48-.36.09-.77.06-1.15.16-.77.19-1.37.8-1.14 3.13z"/><path d="M182.92 159.21c.58-.58 1.09-1.15 1.57-1.8.24-.33.47-.66.67-1.05.17-.4.45-.83.28-1.57-.01-.02-.15.36-.5.53-.33.2-.74.27-1.11.45-.75.35-1.28 1.06-.91 3.44z"/><path d="M181.64 158.66c.61-.45 1.11-.91 1.61-1.47.24-.28.47-.59.66-.97.18-.36.34-.84.23-1.37 0 0-.2.25-.51.42-.31.19-.72.24-1.03.34-.68.21-1.07.7-.96 3.05zM171.16 159.18c-.16-.68-.3-1.4-.4-2.1-.05-.35-.08-.7-.1-1.03-.02-.32.02-.69.05-.81.01.01-.23-.11-.56.05-.33.14-.72.49-.93.93-.44.87-.24 2.13 1.94 2.96zM174.64 157.18c-.32-.26-.66-.57-.95-.88-.28-.28-.57-.7-.62-.82 0 0-.24 0-.48.21-.25.2-.45.58-.49.95-.08.73.58 1.42 2.54.54z"/><path d="M175.97 157.17c-.31-.24-.64-.55-.91-.84-.27-.28-.5-.67-.53-.76 0 0-.05-.01-.15 0a.89.89 0 00-.36.12c-.28.17-.52.53-.56.91-.12.76.57 1.49 2.51.57zM177.03 158.39c.29-.52.54-1.02.79-1.55.12-.27.24-.54.34-.83.09-.32.23-.55.19-1.15 0 0-.21.28-.54.36-.32.11-.7.16-1.01.31-.63.31-.9.94.23 2.86z"/><path d="M178.4 158.56c.46-.5.84-.98 1.19-1.57.17-.3.33-.61.44-1 .05-.21.08-.43.05-.69-.02-.13-.07-.27-.12-.4-.07-.12-.16-.24-.24-.34-.01-.01-.02.34-.24.62-.21.29-.6.36-.86.46-.57.22-.82.71-.22 2.92z"/><path d="M179.73 158.68c.56-.38 1.07-.75 1.59-1.19.26-.22.51-.45.75-.73.12-.14.25-.3.36-.52.1-.19.28-.61.01-1.07.01-.03-.03.53-.42.63-.35.1-.73 0-1.08.04-.7.06-1.27.55-1.21 2.84zM193.74 170.46c.67.08 1.37.2 2.03.36.33.08.66.17.95.28.29.09.58.28.64.31-.04.01.23-.12.23-.48.02-.36-.15-.86-.47-1.22-.63-.74-1.88-1.01-3.38.75z"/><path d="M194.82 169.41c.81.19 1.64.4 2.45.63.4.11.81.23 1.2.35.37.11.83.29 1.02.38 0 0 .12-.21-.01-.6-.11-.37-.34-.84-.72-1.21-.74-.74-2.04-1.09-3.94.45zM192.2 171.28c.94-.02 2.08.26 2.71.98 0 0 .14-.19.25-.52.1-.32.12-.79-.09-1.2-.2-.41-.63-.73-1.18-.68-.53.04-1.25.43-1.69 1.42z"/><path d="M190.76 171.98c.6.24 1.22.51 1.82.79.3.14.59.28.86.44.14.07.27.15.39.23.06.04.12.08.15.11.01.01.05.04.05.03 0-.01-.02 0 .01-.02.08-.05.16-.09.26-.12l-.09.03c-.03.01-.06.03-.09.04.01-.01.03-.02.05-.04.09-.05.13-.2.16-.37.04-.35-.03-.83-.24-1.22-.44-.77-1.46-1.23-3.33.1zM186.78 172.02c.52.44 1.05.94 1.53 1.43.24.25.47.51.67.76.2.25.38.55.43.69-.01 0 .24-.07.42-.39.19-.31.3-.81.22-1.28-.14-.94-1.03-1.84-3.27-1.21zM181.48 173.23c.65.7 1.29 1.44 1.9 2.18.3.37.6.75.87 1.13.26.37.53.8.64 1.09-.01 0 .22-.14.35-.54.14-.39.2-.98.07-1.56-.25-1.18-1.28-2.4-3.83-2.3zM81.45 173.75c-.59.82-1.15 1.65-1.68 2.5-.27.43-.52.86-.77 1.32-.24.47-.48.9-.62 1.56 0 0 .07-.04.19-.12.12-.08.28-.16.48-.24.39-.17.88-.37 1.33-.69.91-.65 1.64-1.8 1.07-4.33zM128.68 159.14c-.1-.01.06.02.13.06.09.04.19.1.28.17.19.14.39.32.57.53.37.41.67.93.95 1.47.55 1.1.89 2.34 1.19 3.59.56 2.52.79 5.15.91 7.78 0 0 .22-.46.47-1.3.27-.84.52-2.06.6-3.57.03-1.5-.12-3.3-.89-5.14-.41-.91-.92-1.84-1.7-2.6-.39-.38-.83-.71-1.31-.93-.24-.1-.49-.18-.73-.2-.12-.01-.23 0-.33.01-.07.02-.24.05-.14.13zM144.81 157.4c-.84 1.86-1.43 3.7-1.91 5.61-.48 1.9-.82 3.83-1 5.77-.41 3.88-.14 7.83.71 11.63 0 0 .1-.73.17-1.96.1-1.21.24-2.94.4-5.03.2-2.06.44-4.47.7-7.12.29-2.68.51-5.56.93-8.9z"/></g></g></svg>