<svg version="1.1" id="Layer_1" xmlns="http://www.w3.org/2000/svg" x="0" y="0" viewBox="0 0 284.08 123.4" xml:space="preserve"><style>.st0{fill:#231f20}</style><path class="st0" d="M.29-.07h283.64v30.46H.29zM82.21 80.49s24.73-11.45 26.56-14.93c0 0 10.04-8.3 21.91 2.16 0 0 3.93 1.42 5.81 0 0 0 11.03-10.38 22.94-1.92 0 0 23.2 17.78 28.68 16.86l1.66.03-3.32 3.48-18.88-3.29s-41.21-6.92-69.92 1.7c0 0-7.6 4.14-9.46 2.89-.01 0-7.73-1.01-5.98-6.98z"/><path class="st0" d="M83.2 89.29s15.62 12.67 17.65 16.54c0 0 25.04 28.49 74.49-3.99 0 0 10.03-12.64 11.11-12.56 0 0-11.92-6.52-21.74-5.14 0 0-20.42 2.04-22.08 4.09 0 0-10.12.02-13.61-2.08 0 0-16.68-3.99-29.88 0 0 .01-12.53 1.48-15.94 3.14zM81.75 80.55c4.75-2.05 9.44-4.17 14.1-6.43 2.32-1.14 4.64-2.28 6.91-3.54 1.14-.63 2.27-1.26 3.38-1.98l.83-.53.82-.59c.55-.36 1.08-.87 1.6-1.35l-.09.09c.83-.62 1.88-1.18 2.92-1.59.52-.23 1.07-.37 1.61-.55.55-.12 1.1-.28 1.66-.36 2.24-.36 4.56-.19 6.76.41 2.22.57 4.28 1.69 6.22 2.97l1.42 1.02.18.13c.11.08.23.17.36.22l.47.18c.3.11.61.2.92.29 1.23.31 2.6.53 4.01.03.34-.13.69-.3.99-.55.18-.13.26-.21.37-.3l.33-.27c.45-.36.92-.69 1.4-1.02.97-.64 1.98-1.22 3.03-1.71 2.09-.99 4.34-1.65 6.62-1.84 2.29-.23 4.59.21 6.71 1.04 2.17.77 4.02 2.24 5.79 3.72l.06.05c4.21 3.07 8.53 5.96 13.02 8.61 2.25 1.32 4.54 2.57 6.93 3.66 1.2.54 2.42 1.03 3.69 1.43 1.27.38 2.6.71 4.05.61h-.06l1.66.02s-.53-.04-1.66-.11h.05c-4.35.23-14.14-5.62-26.86-15.31l.06.05c-.75-.64-1.51-1.29-2.29-1.96-.87-.55-1.73-1.16-2.68-1.66-.99-.41-1.96-.96-3.06-1.18-.54-.13-1.08-.33-1.64-.4-.56-.07-1.13-.13-1.71-.2-4.64-.28-9.46 1.4-13.52 4.34l-.76.58c-.24.19-.55.47-.67.54-.32.23-.76.37-1.26.41-1 .08-2.17-.18-3.23-.59-.17-.08.04.04-.19-.11l-.4-.28-.8-.57c-.53-.39-1.07-.77-1.67-1.08-.59-.32-1.15-.67-1.76-.96-.62-.26-1.25-.53-1.87-.8-2.56-.93-5.39-1.4-8.19-1.05-2.8.35-5.54 1.31-7.86 3.11l-.02.01-.03.04c-.8.81-1.77 1.57-2.8 2.25-1.01.71-2.09 1.35-3.16 2.01-2.16 1.3-4.41 2.53-6.68 3.77-4.55 2.44-9.23 4.87-14.01 7.28z"/><path class="st0" d="M82.25 82.86c.09.83.32 1.4.7 2.01.38.57.85 1.09 1.42 1.45 1.12.77 2.39 1.03 3.59 1.11 1.21.1 2.37-.04 3.52-.21l1.68-.35 1.63-.52c4.18-1.29 8.44-2.4 12.73-3.11 1.07-.18 2.15-.32 3.22-.42.54-.03 1.08-.1 1.61-.11l.8-.02c.2 0 .7-.03.91-.06 2.17-.25 4.37-.45 6.56-.63 4.38-.35 8.78-.57 13.18-.68 8.79-.22 17.62.03 26.33 1.04.54.07 1.1.1 1.62.2l1.63.28 3.27.54 6.55 1.02c2.19.32 4.38.62 6.58.88 1.1.13 2.21.24 3.32.33.56.03 1.12.07 1.69.08l.87-.01c.29 0 .67-.1.99-.16l-.71.09c-.43.01-1.01-.01-1.75-.1-1.49-.16-3.62-.51-6.35-1.01-2.73-.5-6.04-1.16-9.86-1.93-1.91-.39-3.95-.81-6.1-1.25-2.21-.34-4.52-.69-6.95-.92-9.72-1.04-21.3-1.2-33.87-.07-1.57.14-3.16.31-4.76.5-.8.1-1.6.21-2.41.31l-.3.04c-.06.01-.09.01-.07.01l-.16.01-.62.03c-.42.02-.83.04-1.24.09-3.31.32-6.58 1.07-9.84 1.98-1.63.46-3.25.97-4.87 1.52-.81.27-1.62.56-2.42.86l-1.21.46c-.44.15-.85.23-1.28.35-1.7.41-3.49.71-5.36.4-.93-.18-1.89-.53-2.69-1.21a4.41 4.41 0 01-1.02-1.21c-.26-.5-.47-.93-.56-1.61z"/><path class="st0" d="M105.28 84.88c0 .79.01.22.01.39H105.5l.24.01.5.02 1 .04 2 .09 4 .22c2.67.16 5.33.34 7.99.57 2.64.25 5.34.47 7.85.99l.46.1c.04 0 .28.1.42.14.33.11.66.21.99.31.66.19 1.33.36 2 .5 1.34.29 2.7.51 4.07.61 2.73.24 5.52.1 8.22-.52 2.6-.7 5.2-1.23 7.82-1.78 2.62-.53 5.24-1.01 7.87-1.39 1.32-.19 2.63-.34 3.95-.44 1.29-.06 2.67-.16 3.81.12l-.3-.09c-.2-.05-.48-.18-.92-.23-.85-.16-2.15-.25-3.84-.25-3.37.03-8.22.48-14.05 1.52-.73.14-1.47.27-2.23.42-.39.08-.78.16-1.18.24-.37.09-.75.18-1.13.26-1.52.32-3.1.5-4.75.53-1.65.03-3.37-.09-5.11-.35a35.72 35.72 0 01-3.95-.83l-.66-.19-.32-.1c-.02 0-.18-.07-.24-.07l-.19-.04c-1.98-.41-3.91-.54-5.91-.67-1.99-.12-4.01-.17-6.07-.19-2.05-.01-4.13.02-6.24.08-1.05.04-2.11.09-3.17.14l-1.59.09-.8.05-.4.03-.19.02-.09.01h-.06c-.01-.15-.01.42-.02-.36zM84.38 89.99c3.17 2.95 6.27 6.01 9.26 9.14 1.49 1.57 2.96 3.17 4.36 4.81l1.04 1.25c.39.47.78.86 1.18 1.26.81.78 1.64 1.52 2.51 2.22 3.47 2.81 7.4 4.97 11.53 6.6 4.15 1.56 8.52 2.59 12.93 2.94 8.85.71 17.74-.89 25.97-3.97 4.12-1.53 8.14-3.33 11.98-5.45 1.95-1 3.81-2.17 5.69-3.29.95-.54 1.85-1.18 2.77-1.77l2.83-1.87.99-1.42.94-1.31c.63-.87 1.27-1.73 1.92-2.58.65-.85 1.32-1.69 2.01-2.49.35-.4.7-.79 1.07-1.15.18-.18.37-.35.55-.49.09-.07.18-.13.26-.18.05-.03.06-.02.09-.04.02-.02.02.01 0-.02a.692.692 0 01-.01-.25s-.01.05-.01.13c0 .03.02.13.02.12.01-.01 0-.01-.02 0-.04 0-.2.07-.4.21-.41.28-1.03.82-1.78 1.6-1.51 1.55-3.62 4.04-6.14 7.36-4.12 2.5-9.46 5.66-16.03 8.57-3.27 1.49-6.89 2.82-10.78 4a64.88 64.88 0 01-12.55 2.48c-8.85.9-18.85-.44-27.89-5.37-2.24-1.23-4.44-2.65-6.47-4.33-2.09-1.62-3.7-3.8-5.65-5.68-3.78-3.83-7.9-7.5-12.17-11.03z"/><path class="st0" d="M113.72 94.71c-1 .48-1.77 1.07-2.5 1.83-.7.75-1.26 1.7-1.51 2.73-.51 2.09.21 4.15 1.2 5.75 0 0 .05-.42.05-1.06-.01-.31.01-.7.03-1.11-.01-.41.05-.85.08-1.3.1-.92.26-1.79.6-2.85.4-1.06.91-2.36 2.05-3.99zM107.42 93.63c-1.06.8-1.94 1.66-2.64 2.83-.33.58-.62 1.24-.63 1.99-.03.75.24 1.48.64 2.05l.15-.81c.14-.48.35-.97.68-1.38.63-.83 1.27-1.83 1.8-4.68zM152.26 69.7c.93 1.46 1.41 3.53.36 5 0 0 .26.02.68-.09.4-.12.95-.44 1.3-1.06.35-.61.45-1.49.08-2.27-.36-.76-1.21-1.5-2.42-1.58z"/></svg>