<svg id="Layer_1" data-name="Layer 1" xmlns="http://www.w3.org/2000/svg" viewBox="0 0 199 123"><defs><style>.cls-1{fill:#231f20}.cls-2{fill:#e03230}.cls-3{fill:none;stroke:#231f20;stroke-miterlimit:10;stroke-width:6px}</style></defs><path class="cls-1" d="M-.05-.08h199.32v30.46H-.05z"/><path class="cls-2" d="M45.91 75.18s24.73-11.44 26.56-14.93c0 0 10-8.3 21.91 2.16 0 0 3.93 1.42 5.81 0 0 0 11-10.38 22.94-1.93 0 0 19.73 16.8 28.68 16.87h1.66l-3.32 3.48-18.88-3.29s-41.21-6.92-69.92 1.7c0 0-7.6 4.14-9.46 2.89 0 .03-7.72-.98-5.98-6.95z"/><path class="cls-1" d="M48.32 80.39c4.71-2.25 9.29-4.54 13.91-7 2.3-1.23 4.6-2.49 6.91-3.87 1.16-.69 2.32-1.41 3.54-2.24.3-.21.6-.41.92-.66s.64-.47 1-.76.74-.63 1.11-1 .48-.51.7-.77l.09-.11.13-.17.24-.34c.16-.24.31-.48.45-.73l-1.36 1.67c-.11.09 0 0 .06 0l.21-.14c.15-.11.34-.21.51-.32a13.38 13.38 0 012.33-1 10.6 10.6 0 016.19.08 15 15 0 015 2.76c.5.41 1 .76 1.47 1.11a2.2 2.2 0 00.38.24l.43.15.85.28.88.23.73.2.68.11c.22 0 .57.08.86.1a9.52 9.52 0 006.78-1.67l.44-.38.67-.54.47-.35 1-.65a19.55 19.55 0 012.1-1.15 13.11 13.11 0 014.24-1.18 10.23 10.23 0 014.12.35 10.59 10.59 0 012 .75 6.32 6.32 0 011 .54c.3.19.71.43.88.52l1.56 1.26 1.79 1.4q1.78 1.4 3.62 2.74c2.45 1.79 4.95 3.52 7.55 5.18a71.28 71.28 0 008.24 4.59 29.9 29.9 0 004.9 1.79 16.52 16.52 0 003 .51h2.46l-3.23-7.78-.82.88-.38.4-.08.09-.33.38-.57-.07-2.56-.42-5.53-.91-5.53-.91c-1.8-.3-3.82-.63-5.68-.85-7.57-1-15.13-1.55-22.73-1.78a194.25 194.25 0 00-22.87.54c-1.91.2-3.81.35-5.72.61s-3.82.54-5.72.86l-5.7 1.16-6 1.61-1.41.75-1.05.52c-.69.33-1.4.66-2.08.93a17.35 17.35 0 01-1.91.65c-.16 0-.25 0-.36.08h-.26v.07a3 3 0 000 .3 3.38 3.38 0 010 1 4.21 4.21 0 01-.12.48v.29a1.27 1.27 0 01-.26.5l-.07-2.78-.39-.01-.44-.1c-.3-.09-.59-.18-.86-.29a4.17 4.17 0 01-1.19-.67 1 1 0 01-.29-.41c-.08-.09 0-.45.06-.87a7 7 0 00-.57 1c-.09.25-.17.67.36 1.37a6 6 0 001.21 1 11.38 11.38 0 001.82.89l.32.89a1.13 1.13 0 00.23-.41.85.85 0 000-.22s.08.08.2.1l.38.06h.48a12.92 12.92 0 002.29-.26A37.66 37.66 0 0061.24 79a125.4 125.4 0 0116.48-1.24c6.19 0 13 .21 20.49.84s15.47 1.57 23.94 2.89c2.11.32 4.26.68 6.4 1.06s4.33.86 6.6 1.3l6.91 1.34 3.53.65 6.59 1.16 5.44-5.69 9.06-9.48-13.1-.21H152a1 1 0 01-.24 0 4.61 4.61 0 01-1.05-.16 20.09 20.09 0 01-3.07-1.08 61.23 61.23 0 01-7-3.7c-2.39-1.44-4.8-3-7.22-4.65q-1.8-1.24-3.62-2.53l-1.8-1.32-.9-.66-.44-.33-.25-.18-.41-.33-1.66-.94a15.28 15.28 0 00-1.61-.83 21.8 21.8 0 00-3.52-1.21 19.46 19.46 0 00-7.52-.43 21.09 21.09 0 00-7 2.24 26 26 0 00-3.05 1.84c-.48.34-.95.71-1.41 1.08l-.68.57c-.2.18-.51.46-.53.5l-.09.12a2.18 2.18 0 01-1.7.78 8.47 8.47 0 01-1.23 0 3.73 3.73 0 01-.56-.07L95 60h-.18l-.22-.14-.43-.27-.85-.59-1.85-.92a12.66 12.66 0 00-1.91-.76l-1-.34c-.34-.1-.68-.16-1-.24a16.2 16.2 0 00-8.07.14 14.77 14.77 0 00-3.63 1.53 13.45 13.45 0 00-3 2.3l.14-.18a6.55 6.55 0 01-1.26 1.73c-.45.49-.93.94-1.41 1.38-1 .87-2 1.71-3 2.53-2 1.63-4.09 3.22-6.18 4.79-4.15 3.15-8.44 6.26-12.83 9.43z"/><path class="cls-2" d="M46.91 84s15.62 12.67 17.64 16.54c0 0 25 28.49 74.49-4 0 0 10.16-14.23 11.24-14.15 0 0-12.05-4.93-21.88-3.54 0 0-20.41 2-22.07 4.08 0 0-10.13 0-13.61-2.07 0 0-16.68-4-29.88 0 0 0-12.53 1.47-15.93 3.14z"/><path class="cls-1" d="M43.29 88.44c3 2.4 6 4.9 8.9 7.42 1.45 1.26 2.88 2.53 4.21 3.8.68.64 1.31 1.27 1.91 1.89s1.15 1.28 1.35 1.51.51.74.76 1.11.62.64.78.8l.57.54c.38.35.76.67 1.14 1 .76.64 1.52 1.24 2.31 1.8a41.8 41.8 0 004.86 3 47.23 47.23 0 0010.52 4.16 55.6 55.6 0 0022.05 1.18 68.15 68.15 0 0010.59-2.32 90.31 90.31 0 0010-3.67c1.61-.73 3.2-1.49 4.79-2.25s3.12-1.62 4.65-2.47 3-1.75 4.52-2.66l5.1-3.26 3-4.19 2.47-3.4.63-.85 1.15-1.52c.79-1 1.58-2 2.45-3l.08-.09-.21-.11-.42-.21-.84-.43-.83-.43c-.07-.11 0-.19 0-.29l.35-1.06c.22-.66.42-1.25.62-1.74 0-.14.11-.28.16-.39a.49.49 0 01.08-.13v-.14-2.32-.78l.09-1a67.63 67.63 0 00-8.53-2.5l-.27-.06h-.18l-.34-.07-.68-.13c-.45-.09-.9-.17-1.36-.24-.92-.16-1.84-.28-2.77-.38a38.78 38.78 0 00-5.74-.25c-.49 0-1 0-1.46.07l-1.44.16-2.56.29c-3.44.42-6.86.89-10.32 1.45-1.73.29-3.46.6-5.25 1-.89.19-1.8.41-2.77.7a7.27 7.27 0 00-.76.24 8.63 8.63 0 00-.83.3c-.26.09-.66.29-1 .46s-.48.29-.71.45l-.24.18-.28.25a5.39 5.39 0 00-.53.54l3.18-1.52c-2 0-4.17-.09-6.19-.27-1-.11-2-.23-2.93-.4a12.8 12.8 0 01-2.27-.63c-.46-.19-.91-.39-1.38-.55l-.75-.16-.5-.1-1-.18-1.94-.31c-1.29-.2-2.59-.36-3.88-.5q-3.89-.41-7.83-.45a64.14 64.14 0 00-7.93.41c-1.33.18-2.66.36-4 .65-.67.13-1.33.26-2 .46l-1 .27-.5.13h-.1l-3.88.56c-1.37.21-2.74.44-4.11.68s-2.76.53-4.17.86c-.71.17-1.42.35-2.16.57-.36.09-.78.25-1.16.37s-.89.36-1.32.55l.38-.11a10 10 0 011.06-.25 29.59 29.59 0 013.51-.35c2.9-.15 7.13-.17 12.37-.05.37 0 .9-.08 1.39-.14s1-.13 1.52-.15c1.05 0 2.11-.14 3.22-.11a60.25 60.25 0 017 .41c2.46.29 5.05.72 7.73 1.28 1.34.27 2.71.6 4.09 1 .69.17 1.38.37 2.08.57l1 .3.52.16c.18.06.21.09.33.13a1.38 1.38 0 01.38.25A25.21 25.21 0 0099.15 86a64.37 64.37 0 007.19.93l.54-3.53a2 2 0 01.69.77 6.51 6.51 0 01.83 1.28l.16.35.12.22.06.11h.07l.74-.16c.59-.13 1.3-.24 2-.34 1.44-.21 3-.38 4.53-.54 3.12-.31 6.4-.56 9.75-.8l2.53-.17 1.26-.08h1.1a31.39 31.39 0 014.45.3c1.55.22 3.13.5 4.74.89h.24l-.53.73q-1.31 1.75-2.59 3.56c-.42.61-.85 1.21-1.28 1.82l-.62.89v.07c0 .07 0 0-.09.09l-.93.62-1.87 1.25c-1.25.83-2.55 1.58-3.83 2.4-2.6 1.57-5.26 3.06-8 4.47a82.34 82.34 0 01-17.54 6.67 54.08 54.08 0 01-19.53 1.28 47.11 47.11 0 01-10.07-2.46 44.54 44.54 0 01-4.92-2.19c-.81-.41-1.6-.88-2.39-1.36-.39-.25-.78-.5-1.17-.77a12.7 12.7 0 01-1.2-.91 6 6 0 01-.57-.64 35.23 35.23 0 00-4.35-3.36c-1.58-1.08-3.25-2.13-4.93-3.16-3.37-1.94-6.91-3.94-10.45-5.79z"/><path class="cls-1" d="M47.32 79.65c4.81-2.16 9.49-4.37 14.21-6.74 2.35-1.2 4.69-2.4 7.06-3.75.58-.32 1.18-.69 1.78-1s1.19-.72 1.81-1.12l.91-.6 1-.72a17.88 17.88 0 002.21-1.93l-.56.52c-.12.1 0 0 0 0l.21-.15c.14-.1.34-.2.51-.31a9.4 9.4 0 011.15-.55 10.33 10.33 0 012.5-.7 11.8 11.8 0 015.31.41c.22.07.45.12.68.2l.67.29a9.51 9.51 0 011.35.61l1.33.73 1.3.91.69.47c.24.15.47.32.72.47a15.82 15.82 0 001.62.61 14 14 0 003.21.6 9.5 9.5 0 003.36-.37 8.11 8.11 0 002.93-1.65l.41-.34.3-.23c.19-.16.37-.27.56-.41.36-.28.76-.51 1.14-.76l1.2-.69 1.23-.58a14.11 14.11 0 015-1.2 10.48 10.48 0 014.81.82 12.44 12.44 0 012.29 1.18c.76.46 1.44 1.11 2.18 1.64l.36.3c4.39 3.11 8.77 5.95 13.44 8.61a76.38 76.38 0 007.28 3.71 34.72 34.72 0 004.07 1.51 14.25 14.25 0 005.22.68h1.29s-.53-.21-1.66-.57h.31c-3.18-.46-6.35-3-10.42-6.59s-9-8.43-14.64-13.88l.35.29c-.8-.84-1.64-1.71-2.53-2.57L124 55.55a11.48 11.48 0 00-1.67-1.1 20 20 0 00-8.33-2.57 22.28 22.28 0 00-9 1.25 26 26 0 00-4.09 1.87c-.66.38-1.31.77-2 1.2l-.95.65-.7.54a.13.13 0 010 .08c.09.06-.37 0-.33.05.25.18-.29-.18-.54-.35l-.93-.6a21.91 21.91 0 00-2-1.08 24.89 24.89 0 00-4.35-1.7 19.71 19.71 0 00-9.75-.37 18.74 18.74 0 00-4.64 1.66l-1.07.6-1 .68c-.34.25-.66.49-1 .76s-.6.51-1 .93l-.31.29a11.64 11.64 0 01-2 2.35c-.85.86-1.8 1.69-2.74 2.55l-5.91 5.16c-4.06 3.53-8.16 7.25-12.37 11.25z"/><path class="cls-1" d="M41.53 79.75a9.67 9.67 0 003.27 4.73 10 10 0 001.2.82 11 11 0 001.39.67c.44.16.9.31 1.35.44s.83.17 1.25.24a10.62 10.62 0 001.18.13 11 11 0 001.13 0 19.1 19.1 0 002-.13c.62-.09 1.29-.16 1.88-.29l1.9-.42 1.58-.54 1.4-.4 2.68-.82c1.8-.52 3.6-1 5.39-1.4s3.58-.75 5.29-1c.84-.1 1.69-.19 2.47-.21h.64c.23 0 .44 0 .63-.07l.69-.1 1.42-.17c7.6-.9 15.33-1.41 23-1.56 3.85 0 7.7 0 11.53.14 1.92 0 3.82.22 5.73.33l2.85.27 1.29.11 1.42.22c3.92.6 7.83 1.16 11.78 1.65 2 .25 4 .48 6 .67 1 .09 2 .17 3.1.22h.82a8.36 8.36 0 00.88 0h1a9.09 9.09 0 001.74-.35 7.9 7.9 0 01-1.23.06 2.54 2.54 0 01-1-.18c-.3-.09-.69-.19-1-.33-1.4-.54-3.22-1.41-5.54-2.47s-5.1-2.33-8.33-3.68c-1.61-.68-3.34-1.38-5.17-2.08l-2.82-1.07c-.16-.08-.73-.21-.91-.27l-.78-.22-1.63-.41a87.86 87.86 0 00-30.63-2.43c-2.87.28-5.79.66-8.76 1.23-1.48.29-3 .61-4.48 1l-1.13.26-.57.16-.29.07-.13.06s-.1 0 0 .05-.18 0-.26 0l-.65.11c-.43.07-.84.17-1.25.27a42.62 42.62 0 00-9.24 3.52A63.54 63.54 0 0057 81.87a29.51 29.51 0 01-2.91 1.52 13 13 0 01-3.63 1c-.36 0-.73 0-1.11.06a10.73 10.73 0 01-1.22-.1 9.42 9.42 0 01-2.57-.78 9.22 9.22 0 01-4.03-3.82z"/><path class="cls-1" d="M69 76.69c0 1.84 0 3.69-.15 5.53 0 .12-.1 0-.15 0h-.14.34l.72.09 1.51.2 3 .43 6.12.89 6.09 1 3 .52 1.45.27 1.27.26a35 35 0 0011.28 1.55 28.41 28.41 0 005.76-.74c.5-.09.91-.24 1.36-.36l.67-.2.44-.12 2.34-.6c3.12-.79 6.26-1.51 9.37-2.11 1.56-.3 3.11-.56 4.61-.75l1.11-.12 1.05-.08h.93a1.16 1.16 0 01.31 0 1 1 0 00.25 0 3 3 0 00-.23-.55c0-.2-.34-.39-.61-.63a6 6 0 00-1.12-.75 28.57 28.57 0 00-8.56-2.86 44.61 44.61 0 00-13.02-.45c-.52.07-1 .06-1.44.09s-1 0-1.42 0c-1 0-2 0-3-.08-2.07-.1-4.44-.31-6.69-.6l-.27-.06-.27-.06c-.44-.07-.62-.08-.93-.11s-.55 0-.81 0h-1.58c-1 0-2.1 0-3.16.12a52.83 52.83 0 00-6.5 1 56.63 56.63 0 00-6.8 1.9c-1.15.4-2.32.85-3.49 1.34-.58.25-1.18.51-1.75.78-.29.14-.6.28-.85.43l-.4.22s-.1 0-.06.07l.14.08.15.08v-2.62c.13-1.06.13-2.03.13-3z"/><path class="cls-1" d="M44.83 88.19c3.49 3.16 7 6.52 10.27 9.9.82.85 1.62 1.71 2.4 2.56.38.44.77.85 1.15 1.3l.57.67.43.49.42.45a40.89 40.89 0 006.58 5.33 50.45 50.45 0 0030.95 8c10.67-.61 20.67-4.13 29.73-8.75a127.94 127.94 0 0013-7.89 10.73 10.73 0 002-1.62 11.15 11.15 0 00.94-1.12l.55-.8c.68-1 1.36-2 2.06-2.92s1.4-1.89 2.11-2.75c.35-.43.7-.83 1-1.18.13-.12.32-.33.36-.35v-.08a2.09 2.09 0 00-.23-.29l-.19-.24c-.12-.16-.24-.34-.35-.52a4.87 4.87 0 01-.28-.56 1.78 1.78 0 00-.22-.46.91.91 0 01-.13-.67.94.94 0 000 .48 9.36 9.36 0 001.14 2l.12.13h-.16a.41.41 0 00-.27 0 4.61 4.61 0 00-.87.34 36.68 36.68 0 00-6 4c-.63.49-1.28 1-2 1.59a6.2 6.2 0 01-1.07.67c-.38.18-.77.3-1.24.47-1.81.6-3.7 1.37-5.76 2-4.08 1.45-8.67 2.93-13.62 4.34-9.93 2.71-21.29 5.08-33.65 3.34a54.41 54.41 0 01-9.47-2.18 50 50 0 01-9.66-4.29A22.23 22.23 0 0163.27 98a58.862 58.862 0 00-7.49-4.68 89.67 89.67 0 00-10.95-5.13z"/><path class="cls-3" d="M77.78 90.29s-6.39 2.58-2.66 9.13M71.64 89.13S67.07 92 69 94.86"/><path class="cls-1" d="M111.76 66.68a1.28 1.28 0 01.66.16l.62.25c.35.13.77.1 1 .49 0 0 .27.22.73.52a10.76 10.76 0 001.95 1 7.55 7.55 0 002.69.57A5 5 0 00122 69c1.5-.86 2-2.72.42-3.78a6.14 6.14 0 00-3.85-.7 17.93 17.93 0 00-6.81 2.16z"/></svg>